<?xml version="1.0" encoding="UTF-8" standalone="no"?>
<!DOCTYPE svg PUBLIC "-//W3C//DTD SVG 1.1//EN"
 "http://www.w3.org/Graphics/SVG/1.1/DTD/svg11.dtd">
<!-- Generated by graphviz version 2.43.0 (0)
 -->
<!-- Title: Component::quantity Pages: 1 -->
<svg width="587pt" height="107pt"
 viewBox="0.00 0.00 587.00 106.50" xmlns="http://www.w3.org/2000/svg" xmlns:xlink="http://www.w3.org/1999/xlink">
<g id="graph0" class="graph" transform="scale(1 1) rotate(0) translate(4 102.5)">
<title>Component::quantity</title>
<!-- Node1 -->
<g id="Node000001" class="node">
<title>Node1</title>
<g id="a_Node000001"><a xlink:title="Obtiene la cantidad disponible del componente.">
<polygon fill="#999999" stroke="#666666" points="579,-61.5 460,-61.5 460,-42.5 579,-42.5 579,-61.5"/>
<text text-anchor="middle" x="519.5" y="-49.5" font-family="Helvetica,sans-Serif" font-size="10.00">Component::quantity</text>
</a>
</g>
</g>
<!-- Node2 -->
<g id="Node000002" class="node">
<title>Node2</title>
<g id="a_Node000002"><a xlink:href="classDatabaseManager.html#ac81e200d31ca2d7e3ebe67b842dafbd6" target="_top" xlink:title="Inserta un nuevo componente en la tabla de componentes.">
<polygon fill="white" stroke="#666666" points="416,-98.5 230,-98.5 230,-79.5 416,-79.5 416,-98.5"/>
<text text-anchor="middle" x="323" y="-86.5" font-family="Helvetica,sans-Serif" font-size="10.00">DatabaseManager::addComponent</text>
</a>
</g>
</g>
<!-- Node1&#45;&gt;Node2 -->
<g id="edge1_Node000001_Node000002" class="edge">
<title>Node1&#45;&gt;Node2</title>
<g id="a_edge1_Node000001_Node000002"><a xlink:title=" ">
<path fill="none" stroke="#63b8ff" d="M462.05,-63.54C449.53,-66.05 436.32,-68.65 424,-71 409.1,-73.84 392.92,-76.8 378.01,-79.49"/>
<polygon fill="#63b8ff" stroke="#63b8ff" points="462.8,-66.96 471.91,-61.56 461.42,-60.1 462.8,-66.96"/>
</a>
</g>
</g>
<!-- Node4 -->
<g id="Node000004" class="node">
<title>Node4</title>
<g id="a_Node000004"><a xlink:href="classComponent.html#a096ded5396f4edb8b6a50ee01267dab2" target="_top" xlink:title="Establece la cantidad disponible del componente.">
<polygon fill="white" stroke="#666666" points="391,-61.5 255,-61.5 255,-42.5 391,-42.5 391,-61.5"/>
<text text-anchor="middle" x="323" y="-49.5" font-family="Helvetica,sans-Serif" font-size="10.00">Component::setQuantity</text>
</a>
</g>
</g>
<!-- Node1&#45;&gt;Node4 -->
<g id="edge3_Node000001_Node000004" class="edge">
<title>Node1&#45;&gt;Node4</title>
<g id="a_edge3_Node000001_Node000004"><a xlink:title=" ">
<path fill="none" stroke="#63b8ff" d="M449.77,-52C430.69,-52 410.01,-52 391.03,-52"/>
<polygon fill="#63b8ff" stroke="#63b8ff" points="449.88,-55.5 459.88,-52 449.88,-48.5 449.88,-55.5"/>
</a>
</g>
</g>
<!-- Node5 -->
<g id="Node000005" class="node">
<title>Node5</title>
<g id="a_Node000005"><a xlink:href="classDatabaseManager.html#ade951f0e1c52117ce0bc510427a0b52e" target="_top" xlink:title="Actualiza los datos de un componente existente.">
<polygon fill="white" stroke="#666666" points="424,-24.5 222,-24.5 222,-5.5 424,-5.5 424,-24.5"/>
<text text-anchor="middle" x="323" y="-12.5" font-family="Helvetica,sans-Serif" font-size="10.00">DatabaseManager::updateComponent</text>
</a>
</g>
</g>
<!-- Node1&#45;&gt;Node5 -->
<g id="edge4_Node000001_Node000005" class="edge">
<title>Node1&#45;&gt;Node5</title>
<g id="a_edge4_Node000001_Node000005"><a xlink:title=" ">
<path fill="none" stroke="#63b8ff" d="M462.05,-40.46C449.53,-37.95 436.32,-35.35 424,-33 409.1,-30.16 392.92,-27.2 378.01,-24.51"/>
<polygon fill="#63b8ff" stroke="#63b8ff" points="461.42,-43.9 471.91,-42.44 462.8,-37.04 461.42,-43.9"/>
</a>
</g>
</g>
<!-- Node3 -->
<g id="Node000003" class="node">
<title>Node3</title>
<g id="a_Node000003"><a xlink:href="classInventoryManager.html#ab577116c3c234997fc05af6c6689c4d0" target="_top" xlink:title="Agrega un nuevo componente al inventario.">
<polygon fill="white" stroke="#666666" points="186,-98.5 0,-98.5 0,-79.5 186,-79.5 186,-98.5"/>
<text text-anchor="middle" x="93" y="-86.5" font-family="Helvetica,sans-Serif" font-size="10.00">InventoryManager::addComponent</text>
</a>
</g>
</g>
<!-- Node2&#45;&gt;Node3 -->
<g id="edge2_Node000002_Node000003" class="edge">
<title>Node2&#45;&gt;Node3</title>
<g id="a_edge2_Node000002_Node000003"><a xlink:title=" ">
<path fill="none" stroke="#63b8ff" d="M219.69,-89C208.48,-89 197.12,-89 186.05,-89"/>
<polygon fill="#63b8ff" stroke="#63b8ff" points="219.92,-92.5 229.92,-89 219.92,-85.5 219.92,-92.5"/>
</a>
</g>
</g>
<!-- Node6 -->
<g id="Node000006" class="node">
<title>Node6</title>
<g id="a_Node000006"><a xlink:href="classInventoryManager.html#adce8983cba552c3c2490bec21b48e5c4" target="_top" xlink:title="Actualiza los datos de un componente existente en el inventario.">
<polygon fill="white" stroke="#666666" points="166,-30 20,-30 20,0 166,0 166,-30"/>
<text text-anchor="start" x="28" y="-18" font-family="Helvetica,sans-Serif" font-size="10.00">InventoryManager::update</text>
<text text-anchor="middle" x="93" y="-7" font-family="Helvetica,sans-Serif" font-size="10.00">Component</text>
</a>
</g>
</g>
<!-- Node5&#45;&gt;Node6 -->
<g id="edge5_Node000005_Node000006" class="edge">
<title>Node5&#45;&gt;Node6</title>
<g id="a_edge5_Node000005_Node000006"><a xlink:title=" ">
<path fill="none" stroke="#63b8ff" d="M211.83,-15C196.33,-15 180.72,-15 166.18,-15"/>
<polygon fill="#63b8ff" stroke="#63b8ff" points="212,-18.5 222,-15 212,-11.5 212,-18.5"/>
</a>
</g>
</g>
</g>
</svg>
