<?xml version="1.0" encoding="UTF-8" standalone="no"?>
<!DOCTYPE svg PUBLIC "-//W3C//DTD SVG 1.1//EN"
 "http://www.w3.org/Graphics/SVG/1.1/DTD/svg11.dtd">
<!-- Generated by graphviz version 2.43.0 (0)
 -->
<!-- Title: DatabaseManager::fetchAllComponents Pages: 1 -->
<svg width="340pt" height="86pt"
 viewBox="0.00 0.00 340.00 86.00" xmlns="http://www.w3.org/2000/svg" xmlns:xlink="http://www.w3.org/1999/xlink">
<g id="graph0" class="graph" transform="scale(1 1) rotate(0) translate(4 82)">
<title>DatabaseManager::fetchAllComponents</title>
<!-- Node1 -->
<g id="Node000001" class="node">
<title>Node1</title>
<g id="a_Node000001"><a xlink:title="Recupera todos los componentes almacenados en la base de datos.">
<polygon fill="#999999" stroke="#666666" points="332,-54 183,-54 183,-24 332,-24 332,-54"/>
<text text-anchor="start" x="191" y="-42" font-family="Helvetica,sans-Serif" font-size="10.00">DatabaseManager::fetchAll</text>
<text text-anchor="middle" x="257.5" y="-31" font-family="Helvetica,sans-Serif" font-size="10.00">Components</text>
</a>
</g>
</g>
<!-- Node2 -->
<g id="Node000002" class="node">
<title>Node2</title>
<g id="a_Node000002"><a xlink:href="classInventoryManager.html#a6c40450392e097cd28a5e65710147109" target="_top" xlink:title="Obtiene todos los componentes del inventario.">
<polygon fill="white" stroke="#666666" points="143.5,-78 3.5,-78 3.5,-48 143.5,-48 143.5,-78"/>
<text text-anchor="start" x="11.5" y="-66" font-family="Helvetica,sans-Serif" font-size="10.00">InventoryManager::getAll</text>
<text text-anchor="middle" x="73.5" y="-55" font-family="Helvetica,sans-Serif" font-size="10.00">Components</text>
</a>
</g>
</g>
<!-- Node1&#45;&gt;Node2 -->
<g id="edge1_Node000001_Node000002" class="edge">
<title>Node1&#45;&gt;Node2</title>
<g id="a_edge1_Node000001_Node000002"><a xlink:title=" ">
<path fill="none" stroke="#63b8ff" d="M172.85,-50.03C163.05,-51.32 153.13,-52.63 143.56,-53.89"/>
<polygon fill="#63b8ff" stroke="#63b8ff" points="173.54,-53.47 183,-48.69 172.63,-46.53 173.54,-53.47"/>
</a>
</g>
</g>
<!-- Node3 -->
<g id="Node000003" class="node">
<title>Node3</title>
<g id="a_Node000003"><a xlink:href="classInventoryManager.html#a985a18f72df2f077a44b0a3f805467af" target="_top" xlink:title="Obtiene los componentes cuyo stock está por debajo de un umbral.">
<polygon fill="white" stroke="#666666" points="147,-30 0,-30 0,0 147,0 147,-30"/>
<text text-anchor="start" x="8" y="-18" font-family="Helvetica,sans-Serif" font-size="10.00">InventoryManager::getLow</text>
<text text-anchor="middle" x="73.5" y="-7" font-family="Helvetica,sans-Serif" font-size="10.00">StockComponents</text>
</a>
</g>
</g>
<!-- Node1&#45;&gt;Node3 -->
<g id="edge2_Node000001_Node000003" class="edge">
<title>Node1&#45;&gt;Node3</title>
<g id="a_edge2_Node000001_Node000003"><a xlink:title=" ">
<path fill="none" stroke="#63b8ff" d="M172.93,-27.98C164.3,-26.84 155.59,-25.69 147.09,-24.57"/>
<polygon fill="#63b8ff" stroke="#63b8ff" points="172.63,-31.47 183,-29.31 173.54,-24.53 172.63,-31.47"/>
</a>
</g>
</g>
</g>
</svg>
