<?xml version="1.0" encoding="UTF-8" standalone="no"?>
<!DOCTYPE svg PUBLIC "-//W3C//DTD SVG 1.1//EN"
 "http://www.w3.org/Graphics/SVG/1.1/DTD/svg11.dtd">
<!-- Generated by graphviz version 2.43.0 (0)
 -->
<!-- Title: InventoryManager::initialize Pages: 1 -->
<svg width="380pt" height="76pt"
 viewBox="0.00 0.00 380.00 75.50" xmlns="http://www.w3.org/2000/svg" xmlns:xlink="http://www.w3.org/1999/xlink">
<g id="graph0" class="graph" transform="scale(1 1) rotate(0) translate(4 71.5)">
<title>InventoryManager::initialize</title>
<!-- Node1 -->
<g id="Node000001" class="node">
<title>Node1</title>
<g id="a_Node000001"><a xlink:title="Inicializa el gestor de inventario abriendo la base de datos.">
<polygon fill="#999999" stroke="#666666" points="154,-40 0,-40 0,-21 154,-21 154,-40"/>
<text text-anchor="middle" x="77" y="-28" font-family="Helvetica,sans-Serif" font-size="10.00">InventoryManager::initialize</text>
</a>
</g>
</g>
<!-- Node2 -->
<g id="Node000002" class="node">
<title>Node2</title>
<g id="a_Node000002"><a xlink:href="classDatabaseManager.html#afe8b34eadd9a2f0f80a36516ff69b292" target="_top" xlink:title="Crea las tablas necesarias en la base de datos si no existen.">
<polygon fill="white" stroke="#666666" points="358,-67.5 204,-67.5 204,-37.5 358,-37.5 358,-67.5"/>
<text text-anchor="start" x="212" y="-55.5" font-family="Helvetica,sans-Serif" font-size="10.00">DatabaseManager::initialize</text>
<text text-anchor="middle" x="281" y="-44.5" font-family="Helvetica,sans-Serif" font-size="10.00">Tables</text>
</a>
</g>
</g>
<!-- Node1&#45;&gt;Node2 -->
<g id="edge1_Node000001_Node000002" class="edge">
<title>Node1&#45;&gt;Node2</title>
<g id="a_edge1_Node000001_Node000002"><a xlink:title=" ">
<path fill="none" stroke="#63b8ff" d="M154.08,-38.79C167.09,-40.2 180.69,-41.68 193.94,-43.13"/>
<polygon fill="#63b8ff" stroke="#63b8ff" points="193.67,-46.62 203.99,-44.22 194.43,-39.66 193.67,-46.62"/>
</a>
</g>
</g>
<!-- Node3 -->
<g id="Node000003" class="node">
<title>Node3</title>
<g id="a_Node000003"><a xlink:href="classDatabaseManager.html#addc09029100f4c2fb131a8ac98a5dedb" target="_top" xlink:title="Abre una conexión a la base de datos SQLite en la ruta especificada.">
<polygon fill="white" stroke="#666666" points="372,-19 190,-19 190,0 372,0 372,-19"/>
<text text-anchor="middle" x="281" y="-7" font-family="Helvetica,sans-Serif" font-size="10.00">DatabaseManager::openDatabase</text>
</a>
</g>
</g>
<!-- Node1&#45;&gt;Node3 -->
<g id="edge2_Node000001_Node000003" class="edge">
<title>Node1&#45;&gt;Node3</title>
<g id="a_edge2_Node000001_Node000003"><a xlink:title=" ">
<path fill="none" stroke="#63b8ff" d="M154.08,-22.59C162.44,-21.72 171.04,-20.83 179.64,-19.93"/>
<polygon fill="#63b8ff" stroke="#63b8ff" points="180.13,-23.4 189.71,-18.89 179.4,-16.44 180.13,-23.4"/>
</a>
</g>
</g>
</g>
</svg>
