<?xml version="1.0" encoding="UTF-8" standalone="no"?>
<!DOCTYPE svg PUBLIC "-//W3C//DTD SVG 1.1//EN"
 "http://www.w3.org/Graphics/SVG/1.1/DTD/svg11.dtd">
<!-- Generated by graphviz version 2.43.0 (0)
 -->
<!-- Title: InventoryManager::addComponent Pages: 1 -->
<svg width="598pt" height="175pt"
 viewBox="0.00 0.00 598.00 175.00" xmlns="http://www.w3.org/2000/svg" xmlns:xlink="http://www.w3.org/1999/xlink">
<g id="graph0" class="graph" transform="scale(1 1) rotate(0) translate(4 171)">
<title>InventoryManager::addComponent</title>
<!-- Node1 -->
<g id="Node000001" class="node">
<title>Node1</title>
<g id="a_Node000001"><a xlink:title="Agrega un nuevo componente al inventario.">
<polygon fill="#999999" stroke="#666666" points="186,-93 0,-93 0,-74 186,-74 186,-93"/>
<text text-anchor="middle" x="93" y="-81" font-family="Helvetica,sans-Serif" font-size="10.00">InventoryManager::addComponent</text>
</a>
</g>
</g>
<!-- Node2 -->
<g id="Node000002" class="node">
<title>Node2</title>
<g id="a_Node000002"><a xlink:href="classDatabaseManager.html#ac81e200d31ca2d7e3ebe67b842dafbd6" target="_top" xlink:title="Inserta un nuevo componente en la tabla de componentes.">
<polygon fill="white" stroke="#666666" points="408,-93 222,-93 222,-74 408,-74 408,-93"/>
<text text-anchor="middle" x="315" y="-81" font-family="Helvetica,sans-Serif" font-size="10.00">DatabaseManager::addComponent</text>
</a>
</g>
</g>
<!-- Node1&#45;&gt;Node2 -->
<g id="edge1_Node000001_Node000002" class="edge">
<title>Node1&#45;&gt;Node2</title>
<g id="a_edge1_Node000001_Node000002"><a xlink:title=" ">
<path fill="none" stroke="#63b8ff" d="M186.03,-83.5C194.57,-83.5 203.27,-83.5 211.9,-83.5"/>
<polygon fill="#63b8ff" stroke="#63b8ff" points="211.99,-87 221.99,-83.5 211.99,-80 211.99,-87"/>
</a>
</g>
</g>
<!-- Node3 -->
<g id="Node000003" class="node">
<title>Node3</title>
<g id="a_Node000003"><a xlink:href="classComponent.html#affbdac04e08e18487fb4cb139b71dbc7" target="_top" xlink:title="Obtiene la ubicación de almacenamiento del componente.">
<polygon fill="white" stroke="#666666" points="576,-167 458,-167 458,-148 576,-148 576,-167"/>
<text text-anchor="middle" x="517" y="-155" font-family="Helvetica,sans-Serif" font-size="10.00">Component::location</text>
</a>
</g>
</g>
<!-- Node2&#45;&gt;Node3 -->
<g id="edge2_Node000002_Node000003" class="edge">
<title>Node2&#45;&gt;Node3</title>
<g id="a_edge2_Node000002_Node000003"><a xlink:title=" ">
<path fill="none" stroke="#63b8ff" d="M335.12,-93.07C359.79,-105.14 404.28,-125.95 444,-139.5 450,-141.55 456.36,-143.47 462.71,-145.25"/>
<polygon fill="#63b8ff" stroke="#63b8ff" points="462.07,-148.7 472.63,-147.91 463.88,-141.94 462.07,-148.7"/>
</a>
</g>
</g>
<!-- Node4 -->
<g id="Node000004" class="node">
<title>Node4</title>
<g id="a_Node000004"><a xlink:href="classComponent.html#ac3e00b0de9b1817765d0f4838f04d159" target="_top" xlink:title="Obtiene el nombre descriptivo del componente.">
<polygon fill="white" stroke="#666666" points="570.5,-130 463.5,-130 463.5,-111 570.5,-111 570.5,-130"/>
<text text-anchor="middle" x="517" y="-118" font-family="Helvetica,sans-Serif" font-size="10.00">Component::name</text>
</a>
</g>
</g>
<!-- Node2&#45;&gt;Node4 -->
<g id="edge3_Node000002_Node000004" class="edge">
<title>Node2&#45;&gt;Node4</title>
<g id="a_edge3_Node000002_Node000004"><a xlink:title=" ">
<path fill="none" stroke="#63b8ff" d="M367.5,-93.03C394,-97.93 426.48,-103.94 454.3,-109.09"/>
<polygon fill="#63b8ff" stroke="#63b8ff" points="453.85,-112.56 464.32,-110.94 455.13,-105.68 453.85,-112.56"/>
</a>
</g>
</g>
<!-- Node5 -->
<g id="Node000005" class="node">
<title>Node5</title>
<g id="a_Node000005"><a xlink:href="classComponent.html#a67289b67df4f7f707c5ad1083feea23a" target="_top" xlink:title="Obtiene la fecha de compra del componente.">
<polygon fill="white" stroke="#666666" points="590,-93 444,-93 444,-74 590,-74 590,-93"/>
<text text-anchor="middle" x="517" y="-81" font-family="Helvetica,sans-Serif" font-size="10.00">Component::purchaseDate</text>
</a>
</g>
</g>
<!-- Node2&#45;&gt;Node5 -->
<g id="edge4_Node000002_Node000005" class="edge">
<title>Node2&#45;&gt;Node5</title>
<g id="a_edge4_Node000002_Node000005"><a xlink:title=" ">
<path fill="none" stroke="#63b8ff" d="M408.1,-83.5C416.62,-83.5 425.23,-83.5 433.66,-83.5"/>
<polygon fill="#63b8ff" stroke="#63b8ff" points="433.84,-87 443.84,-83.5 433.84,-80 433.84,-87"/>
</a>
</g>
</g>
<!-- Node6 -->
<g id="Node000006" class="node">
<title>Node6</title>
<g id="a_Node000006"><a xlink:href="classComponent.html#af6393dedb829b5c2527f09da4fa4d05c" target="_top" xlink:title="Obtiene la cantidad disponible del componente.">
<polygon fill="white" stroke="#666666" points="576.5,-56 457.5,-56 457.5,-37 576.5,-37 576.5,-56"/>
<text text-anchor="middle" x="517" y="-44" font-family="Helvetica,sans-Serif" font-size="10.00">Component::quantity</text>
</a>
</g>
</g>
<!-- Node2&#45;&gt;Node6 -->
<g id="edge5_Node000002_Node000006" class="edge">
<title>Node2&#45;&gt;Node6</title>
<g id="a_edge5_Node000002_Node000006"><a xlink:title=" ">
<path fill="none" stroke="#63b8ff" d="M367.5,-73.97C394,-69.07 426.48,-63.06 454.3,-57.91"/>
<polygon fill="#63b8ff" stroke="#63b8ff" points="455.13,-61.32 464.32,-56.06 453.85,-54.44 455.13,-61.32"/>
</a>
</g>
</g>
<!-- Node7 -->
<g id="Node000007" class="node">
<title>Node7</title>
<g id="a_Node000007"><a xlink:href="classComponent.html#a54762b55028636c72dcf9737417239df" target="_top" xlink:title="Obtiene el tipo o categoría del componente.">
<polygon fill="white" stroke="#666666" points="567.5,-19 466.5,-19 466.5,0 567.5,0 567.5,-19"/>
<text text-anchor="middle" x="517" y="-7" font-family="Helvetica,sans-Serif" font-size="10.00">Component::type</text>
</a>
</g>
</g>
<!-- Node2&#45;&gt;Node7 -->
<g id="edge6_Node000002_Node000007" class="edge">
<title>Node2&#45;&gt;Node7</title>
<g id="a_edge6_Node000002_Node000007"><a xlink:title=" ">
<path fill="none" stroke="#63b8ff" d="M335.6,-74C360.41,-62.22 404.67,-42.06 444,-28.5 451.05,-26.07 458.59,-23.77 466.02,-21.66"/>
<polygon fill="#63b8ff" stroke="#63b8ff" points="466.98,-25.03 475.7,-19.01 465.13,-18.28 466.98,-25.03"/>
</a>
</g>
</g>
</g>
</svg>
