<?xml version="1.0" encoding="UTF-8" standalone="no"?>
<!DOCTYPE svg PUBLIC "-//W3C//DTD SVG 1.1//EN"
 "http://www.w3.org/Graphics/SVG/1.1/DTD/svg11.dtd">
<!-- Generated by graphviz version 2.43.0 (0)
 -->
<!-- Title: DatabaseManager::addComponent Pages: 1 -->
<svg width="376pt" height="175pt"
 viewBox="0.00 0.00 376.00 175.00" xmlns="http://www.w3.org/2000/svg" xmlns:xlink="http://www.w3.org/1999/xlink">
<g id="graph0" class="graph" transform="scale(1 1) rotate(0) translate(4 171)">
<title>DatabaseManager::addComponent</title>
<!-- Node1 -->
<g id="Node000001" class="node">
<title>Node1</title>
<g id="a_Node000001"><a xlink:title="Inserta un nuevo componente en la tabla de componentes.">
<polygon fill="#999999" stroke="#666666" points="186,-93 0,-93 0,-74 186,-74 186,-93"/>
<text text-anchor="middle" x="93" y="-81" font-family="Helvetica,sans-Serif" font-size="10.00">DatabaseManager::addComponent</text>
</a>
</g>
</g>
<!-- Node2 -->
<g id="Node000002" class="node">
<title>Node2</title>
<g id="a_Node000002"><a xlink:href="classComponent.html#affbdac04e08e18487fb4cb139b71dbc7" target="_top" xlink:title="Obtiene la ubicación de almacenamiento del componente.">
<polygon fill="white" stroke="#666666" points="354,-167 236,-167 236,-148 354,-148 354,-167"/>
<text text-anchor="middle" x="295" y="-155" font-family="Helvetica,sans-Serif" font-size="10.00">Component::location</text>
</a>
</g>
</g>
<!-- Node1&#45;&gt;Node2 -->
<g id="edge1_Node000001_Node000002" class="edge">
<title>Node1&#45;&gt;Node2</title>
<g id="a_edge1_Node000001_Node000002"><a xlink:title=" ">
<path fill="none" stroke="#63b8ff" d="M113.12,-93.07C137.79,-105.14 182.28,-125.95 222,-139.5 228,-141.55 234.36,-143.47 240.71,-145.25"/>
<polygon fill="#63b8ff" stroke="#63b8ff" points="240.07,-148.7 250.63,-147.91 241.88,-141.94 240.07,-148.7"/>
</a>
</g>
</g>
<!-- Node3 -->
<g id="Node000003" class="node">
<title>Node3</title>
<g id="a_Node000003"><a xlink:href="classComponent.html#ac3e00b0de9b1817765d0f4838f04d159" target="_top" xlink:title="Obtiene el nombre descriptivo del componente.">
<polygon fill="white" stroke="#666666" points="348.5,-130 241.5,-130 241.5,-111 348.5,-111 348.5,-130"/>
<text text-anchor="middle" x="295" y="-118" font-family="Helvetica,sans-Serif" font-size="10.00">Component::name</text>
</a>
</g>
</g>
<!-- Node1&#45;&gt;Node3 -->
<g id="edge2_Node000001_Node000003" class="edge">
<title>Node1&#45;&gt;Node3</title>
<g id="a_edge2_Node000001_Node000003"><a xlink:title=" ">
<path fill="none" stroke="#63b8ff" d="M145.5,-93.03C172,-97.93 204.48,-103.94 232.3,-109.09"/>
<polygon fill="#63b8ff" stroke="#63b8ff" points="231.85,-112.56 242.32,-110.94 233.13,-105.68 231.85,-112.56"/>
</a>
</g>
</g>
<!-- Node4 -->
<g id="Node000004" class="node">
<title>Node4</title>
<g id="a_Node000004"><a xlink:href="classComponent.html#a67289b67df4f7f707c5ad1083feea23a" target="_top" xlink:title="Obtiene la fecha de compra del componente.">
<polygon fill="white" stroke="#666666" points="368,-93 222,-93 222,-74 368,-74 368,-93"/>
<text text-anchor="middle" x="295" y="-81" font-family="Helvetica,sans-Serif" font-size="10.00">Component::purchaseDate</text>
</a>
</g>
</g>
<!-- Node1&#45;&gt;Node4 -->
<g id="edge3_Node000001_Node000004" class="edge">
<title>Node1&#45;&gt;Node4</title>
<g id="a_edge3_Node000001_Node000004"><a xlink:title=" ">
<path fill="none" stroke="#63b8ff" d="M186.1,-83.5C194.62,-83.5 203.23,-83.5 211.66,-83.5"/>
<polygon fill="#63b8ff" stroke="#63b8ff" points="211.84,-87 221.84,-83.5 211.84,-80 211.84,-87"/>
</a>
</g>
</g>
<!-- Node5 -->
<g id="Node000005" class="node">
<title>Node5</title>
<g id="a_Node000005"><a xlink:href="classComponent.html#af6393dedb829b5c2527f09da4fa4d05c" target="_top" xlink:title="Obtiene la cantidad disponible del componente.">
<polygon fill="white" stroke="#666666" points="354.5,-56 235.5,-56 235.5,-37 354.5,-37 354.5,-56"/>
<text text-anchor="middle" x="295" y="-44" font-family="Helvetica,sans-Serif" font-size="10.00">Component::quantity</text>
</a>
</g>
</g>
<!-- Node1&#45;&gt;Node5 -->
<g id="edge4_Node000001_Node000005" class="edge">
<title>Node1&#45;&gt;Node5</title>
<g id="a_edge4_Node000001_Node000005"><a xlink:title=" ">
<path fill="none" stroke="#63b8ff" d="M145.5,-73.97C172,-69.07 204.48,-63.06 232.3,-57.91"/>
<polygon fill="#63b8ff" stroke="#63b8ff" points="233.13,-61.32 242.32,-56.06 231.85,-54.44 233.13,-61.32"/>
</a>
</g>
</g>
<!-- Node6 -->
<g id="Node000006" class="node">
<title>Node6</title>
<g id="a_Node000006"><a xlink:href="classComponent.html#a54762b55028636c72dcf9737417239df" target="_top" xlink:title="Obtiene el tipo o categoría del componente.">
<polygon fill="white" stroke="#666666" points="345.5,-19 244.5,-19 244.5,0 345.5,0 345.5,-19"/>
<text text-anchor="middle" x="295" y="-7" font-family="Helvetica,sans-Serif" font-size="10.00">Component::type</text>
</a>
</g>
</g>
<!-- Node1&#45;&gt;Node6 -->
<g id="edge5_Node000001_Node000006" class="edge">
<title>Node1&#45;&gt;Node6</title>
<g id="a_edge5_Node000001_Node000006"><a xlink:title=" ">
<path fill="none" stroke="#63b8ff" d="M113.6,-74C138.41,-62.22 182.67,-42.06 222,-28.5 229.05,-26.07 236.59,-23.77 244.02,-21.66"/>
<polygon fill="#63b8ff" stroke="#63b8ff" points="244.98,-25.03 253.7,-19.01 243.13,-18.28 244.98,-25.03"/>
</a>
</g>
</g>
</g>
</svg>
