<?xml version="1.0" encoding="UTF-8" standalone="no"?>
<!DOCTYPE svg PUBLIC "-//W3C//DTD SVG 1.1//EN"
 "http://www.w3.org/Graphics/SVG/1.1/DTD/svg11.dtd">
<!-- Generated by graphviz version 2.43.0 (0)
 -->
<!-- Title: Component::id Pages: 1 -->
<svg width="516pt" height="70pt"
 viewBox="0.00 0.00 516.00 69.50" xmlns="http://www.w3.org/2000/svg" xmlns:xlink="http://www.w3.org/1999/xlink">
<g id="graph0" class="graph" transform="scale(1 1) rotate(0) translate(4 65.5)">
<title>Component::id</title>
<!-- Node1 -->
<g id="Node000001" class="node">
<title>Node1</title>
<g id="a_Node000001"><a xlink:title="Obtiene el identificador único del componente.">
<polygon fill="#999999" stroke="#666666" points="508,-42.5 420,-42.5 420,-23.5 508,-23.5 508,-42.5"/>
<text text-anchor="middle" x="464" y="-30.5" font-family="Helvetica,sans-Serif" font-size="10.00">Component::id</text>
</a>
</g>
</g>
<!-- Node2 -->
<g id="Node000002" class="node">
<title>Node2</title>
<g id="a_Node000002"><a xlink:href="classComponent.html#adcba60cb547a56164b4d35c9d2a4278c" target="_top" xlink:title="Establece el identificador único del componente.">
<polygon fill="white" stroke="#666666" points="334.5,-61.5 231.5,-61.5 231.5,-42.5 334.5,-42.5 334.5,-61.5"/>
<text text-anchor="middle" x="283" y="-49.5" font-family="Helvetica,sans-Serif" font-size="10.00">Component::setId</text>
</a>
</g>
</g>
<!-- Node1&#45;&gt;Node2 -->
<g id="edge1_Node000001_Node000002" class="edge">
<title>Node1&#45;&gt;Node2</title>
<g id="a_edge1_Node000001_Node000002"><a xlink:title=" ">
<path fill="none" stroke="#63b8ff" d="M409.43,-38.69C385.69,-41.21 357.92,-44.15 334.55,-46.63"/>
<polygon fill="#63b8ff" stroke="#63b8ff" points="410.09,-42.14 419.67,-37.6 409.36,-35.17 410.09,-42.14"/>
</a>
</g>
</g>
<!-- Node3 -->
<g id="Node000003" class="node">
<title>Node3</title>
<g id="a_Node000003"><a xlink:href="classDatabaseManager.html#ade951f0e1c52117ce0bc510427a0b52e" target="_top" xlink:title="Actualiza los datos de un componente existente.">
<polygon fill="white" stroke="#666666" points="384,-24.5 182,-24.5 182,-5.5 384,-5.5 384,-24.5"/>
<text text-anchor="middle" x="283" y="-12.5" font-family="Helvetica,sans-Serif" font-size="10.00">DatabaseManager::updateComponent</text>
</a>
</g>
</g>
<!-- Node1&#45;&gt;Node3 -->
<g id="edge2_Node000001_Node000003" class="edge">
<title>Node1&#45;&gt;Node3</title>
<g id="a_edge2_Node000001_Node000003"><a xlink:title=" ">
<path fill="none" stroke="#63b8ff" d="M409.68,-27.64C399.83,-26.65 389.27,-25.59 378.61,-24.51"/>
<polygon fill="#63b8ff" stroke="#63b8ff" points="409.37,-31.12 419.67,-28.64 410.07,-24.16 409.37,-31.12"/>
</a>
</g>
</g>
<!-- Node4 -->
<g id="Node000004" class="node">
<title>Node4</title>
<g id="a_Node000004"><a xlink:href="classInventoryManager.html#adce8983cba552c3c2490bec21b48e5c4" target="_top" xlink:title="Actualiza los datos de un componente existente en el inventario.">
<polygon fill="white" stroke="#666666" points="146,-30 0,-30 0,0 146,0 146,-30"/>
<text text-anchor="start" x="8" y="-18" font-family="Helvetica,sans-Serif" font-size="10.00">InventoryManager::update</text>
<text text-anchor="middle" x="73" y="-7" font-family="Helvetica,sans-Serif" font-size="10.00">Component</text>
</a>
</g>
</g>
<!-- Node3&#45;&gt;Node4 -->
<g id="edge3_Node000003_Node000004" class="edge">
<title>Node3&#45;&gt;Node4</title>
<g id="a_edge3_Node000003_Node000004"><a xlink:title=" ">
<path fill="none" stroke="#63b8ff" d="M171.77,-15C163.1,-15 154.49,-15 146.18,-15"/>
<polygon fill="#63b8ff" stroke="#63b8ff" points="171.96,-18.5 181.96,-15 171.96,-11.5 171.96,-18.5"/>
</a>
</g>
</g>
</g>
</svg>
