<?xml version="1.0" encoding="UTF-8" standalone="no"?>
<!DOCTYPE svg PUBLIC "-//W3C//DTD SVG 1.1//EN"
 "http://www.w3.org/Graphics/SVG/1.1/DTD/svg11.dtd">
<!-- Generated by graphviz version 2.43.0 (0)
 -->
<!-- Title: DatabaseManager::updateComponent Pages: 1 -->
<svg width="392pt" height="212pt"
 viewBox="0.00 0.00 392.00 212.00" xmlns="http://www.w3.org/2000/svg" xmlns:xlink="http://www.w3.org/1999/xlink">
<g id="graph0" class="graph" transform="scale(1 1) rotate(0) translate(4 208)">
<title>DatabaseManager::updateComponent</title>
<!-- Node1 -->
<g id="Node000001" class="node">
<title>Node1</title>
<g id="a_Node000001"><a xlink:title="Actualiza los datos de un componente existente.">
<polygon fill="#999999" stroke="#666666" points="202,-111 0,-111 0,-92 202,-92 202,-111"/>
<text text-anchor="middle" x="101" y="-99" font-family="Helvetica,sans-Serif" font-size="10.00">DatabaseManager::updateComponent</text>
</a>
</g>
</g>
<!-- Node2 -->
<g id="Node000002" class="node">
<title>Node2</title>
<g id="a_Node000002"><a xlink:href="classComponent.html#aa83353d3aa5d48e7b80c40f230db8dee" target="_top" xlink:title="Obtiene el identificador único del componente.">
<polygon fill="white" stroke="#666666" points="355,-204 267,-204 267,-185 355,-185 355,-204"/>
<text text-anchor="middle" x="311" y="-192" font-family="Helvetica,sans-Serif" font-size="10.00">Component::id</text>
</a>
</g>
</g>
<!-- Node1&#45;&gt;Node2 -->
<g id="edge1_Node000001_Node000002" class="edge">
<title>Node1&#45;&gt;Node2</title>
<g id="a_edge1_Node000001_Node000002"><a xlink:title=" ">
<path fill="none" stroke="#63b8ff" d="M116.47,-111.14C140.68,-126.88 191.32,-158.16 238,-176.5 243.98,-178.85 250.36,-180.97 256.77,-182.86"/>
<polygon fill="#63b8ff" stroke="#63b8ff" points="256.22,-186.33 266.79,-185.63 258.08,-179.59 256.22,-186.33"/>
</a>
</g>
</g>
<!-- Node3 -->
<g id="Node000003" class="node">
<title>Node3</title>
<g id="a_Node000003"><a xlink:href="classComponent.html#affbdac04e08e18487fb4cb139b71dbc7" target="_top" xlink:title="Obtiene la ubicación de almacenamiento del componente.">
<polygon fill="white" stroke="#666666" points="370,-167 252,-167 252,-148 370,-148 370,-167"/>
<text text-anchor="middle" x="311" y="-155" font-family="Helvetica,sans-Serif" font-size="10.00">Component::location</text>
</a>
</g>
</g>
<!-- Node1&#45;&gt;Node3 -->
<g id="edge2_Node000001_Node000003" class="edge">
<title>Node1&#45;&gt;Node3</title>
<g id="a_edge2_Node000001_Node000003"><a xlink:title=" ">
<path fill="none" stroke="#63b8ff" d="M135.19,-111.05C162.68,-118.89 202.81,-130.19 238,-139.5 245.53,-141.49 253.52,-143.55 261.34,-145.53"/>
<polygon fill="#63b8ff" stroke="#63b8ff" points="260.54,-148.94 271.09,-147.98 262.24,-142.15 260.54,-148.94"/>
</a>
</g>
</g>
<!-- Node4 -->
<g id="Node000004" class="node">
<title>Node4</title>
<g id="a_Node000004"><a xlink:href="classComponent.html#ac3e00b0de9b1817765d0f4838f04d159" target="_top" xlink:title="Obtiene el nombre descriptivo del componente.">
<polygon fill="white" stroke="#666666" points="364.5,-130 257.5,-130 257.5,-111 364.5,-111 364.5,-130"/>
<text text-anchor="middle" x="311" y="-118" font-family="Helvetica,sans-Serif" font-size="10.00">Component::name</text>
</a>
</g>
</g>
<!-- Node1&#45;&gt;Node4 -->
<g id="edge3_Node000001_Node000004" class="edge">
<title>Node1&#45;&gt;Node4</title>
<g id="a_edge3_Node000001_Node000004"><a xlink:title=" ">
<path fill="none" stroke="#63b8ff" d="M202.04,-110.64C217.45,-112.05 232.97,-113.46 247.26,-114.77"/>
<polygon fill="#63b8ff" stroke="#63b8ff" points="247.15,-118.27 257.42,-115.7 247.78,-111.3 247.15,-118.27"/>
</a>
</g>
</g>
<!-- Node5 -->
<g id="Node000005" class="node">
<title>Node5</title>
<g id="a_Node000005"><a xlink:href="classComponent.html#a67289b67df4f7f707c5ad1083feea23a" target="_top" xlink:title="Obtiene la fecha de compra del componente.">
<polygon fill="white" stroke="#666666" points="384,-93 238,-93 238,-74 384,-74 384,-93"/>
<text text-anchor="middle" x="311" y="-81" font-family="Helvetica,sans-Serif" font-size="10.00">Component::purchaseDate</text>
</a>
</g>
</g>
<!-- Node1&#45;&gt;Node5 -->
<g id="edge4_Node000001_Node000005" class="edge">
<title>Node1&#45;&gt;Node5</title>
<g id="a_edge4_Node000001_Node000005"><a xlink:title=" ">
<path fill="none" stroke="#63b8ff" d="M202.04,-92.84C210.62,-92.1 219.24,-91.35 227.66,-90.63"/>
<polygon fill="#63b8ff" stroke="#63b8ff" points="228.16,-94.1 237.82,-89.75 227.55,-87.12 228.16,-94.1"/>
</a>
</g>
</g>
<!-- Node6 -->
<g id="Node000006" class="node">
<title>Node6</title>
<g id="a_Node000006"><a xlink:href="classComponent.html#af6393dedb829b5c2527f09da4fa4d05c" target="_top" xlink:title="Obtiene la cantidad disponible del componente.">
<polygon fill="white" stroke="#666666" points="370.5,-56 251.5,-56 251.5,-37 370.5,-37 370.5,-56"/>
<text text-anchor="middle" x="311" y="-44" font-family="Helvetica,sans-Serif" font-size="10.00">Component::quantity</text>
</a>
</g>
</g>
<!-- Node1&#45;&gt;Node6 -->
<g id="edge5_Node000001_Node000006" class="edge">
<title>Node1&#45;&gt;Node6</title>
<g id="a_edge5_Node000001_Node000006"><a xlink:title=" ">
<path fill="none" stroke="#63b8ff" d="M138.08,-91.94C165.48,-84.68 204.11,-74.46 238,-65.5 246.35,-63.29 255.26,-60.94 263.85,-58.67"/>
<polygon fill="#63b8ff" stroke="#63b8ff" points="264.96,-62 273.74,-56.06 263.18,-55.23 264.96,-62"/>
</a>
</g>
</g>
<!-- Node7 -->
<g id="Node000007" class="node">
<title>Node7</title>
<g id="a_Node000007"><a xlink:href="classComponent.html#a54762b55028636c72dcf9737417239df" target="_top" xlink:title="Obtiene el tipo o categoría del componente.">
<polygon fill="white" stroke="#666666" points="361.5,-19 260.5,-19 260.5,0 361.5,0 361.5,-19"/>
<text text-anchor="middle" x="311" y="-7" font-family="Helvetica,sans-Serif" font-size="10.00">Component::type</text>
</a>
</g>
</g>
<!-- Node1&#45;&gt;Node7 -->
<g id="edge6_Node000001_Node000007" class="edge">
<title>Node1&#45;&gt;Node7</title>
<g id="a_edge6_Node000001_Node000007"><a xlink:title=" ">
<path fill="none" stroke="#63b8ff" d="M116.94,-91.96C141.39,-76.7 191.88,-46.67 238,-28.5 244.22,-26.05 250.87,-23.81 257.52,-21.8"/>
<polygon fill="#63b8ff" stroke="#63b8ff" points="258.56,-25.15 267.21,-19.03 256.63,-18.42 258.56,-25.15"/>
</a>
</g>
</g>
</g>
</svg>
