<?xml version="1.0" encoding="UTF-8" standalone="no"?>
<!DOCTYPE svg PUBLIC "-//W3C//DTD SVG 1.1//EN"
 "http://www.w3.org/Graphics/SVG/1.1/DTD/svg11.dtd">
<!-- Generated by graphviz version 2.43.0 (0)
 -->
<!-- Title: Component::purchaseDate Pages: 1 -->
<svg width="614pt" height="76pt"
 viewBox="0.00 0.00 614.00 75.50" xmlns="http://www.w3.org/2000/svg" xmlns:xlink="http://www.w3.org/1999/xlink">
<g id="graph0" class="graph" transform="scale(1 1) rotate(0) translate(4 71.5)">
<title>Component::purchaseDate</title>
<!-- Node1 -->
<g id="Node000001" class="node">
<title>Node1</title>
<g id="a_Node000001"><a xlink:title="Obtiene la fecha de compra del componente.">
<polygon fill="#999999" stroke="#666666" points="606,-45.5 460,-45.5 460,-26.5 606,-26.5 606,-45.5"/>
<text text-anchor="middle" x="533" y="-33.5" font-family="Helvetica,sans-Serif" font-size="10.00">Component::purchaseDate</text>
</a>
</g>
</g>
<!-- Node2 -->
<g id="Node000002" class="node">
<title>Node2</title>
<g id="a_Node000002"><a xlink:href="classDatabaseManager.html#ac81e200d31ca2d7e3ebe67b842dafbd6" target="_top" xlink:title="Inserta un nuevo componente en la tabla de componentes.">
<polygon fill="white" stroke="#666666" points="416,-65.5 230,-65.5 230,-46.5 416,-46.5 416,-65.5"/>
<text text-anchor="middle" x="323" y="-53.5" font-family="Helvetica,sans-Serif" font-size="10.00">DatabaseManager::addComponent</text>
</a>
</g>
</g>
<!-- Node1&#45;&gt;Node2 -->
<g id="edge1_Node000001_Node000002" class="edge">
<title>Node1&#45;&gt;Node2</title>
<g id="a_edge1_Node000001_Node000002"><a xlink:title=" ">
<path fill="none" stroke="#63b8ff" d="M449.81,-43.9C438.77,-44.96 427.39,-46.06 416.19,-47.14"/>
<polygon fill="#63b8ff" stroke="#63b8ff" points="450.22,-47.38 459.84,-42.94 449.55,-40.41 450.22,-47.38"/>
</a>
</g>
</g>
<!-- Node4 -->
<g id="Node000004" class="node">
<title>Node4</title>
<g id="a_Node000004"><a xlink:href="classDatabaseManager.html#ade951f0e1c52117ce0bc510427a0b52e" target="_top" xlink:title="Actualiza los datos de un componente existente.">
<polygon fill="white" stroke="#666666" points="424,-27.5 222,-27.5 222,-8.5 424,-8.5 424,-27.5"/>
<text text-anchor="middle" x="323" y="-15.5" font-family="Helvetica,sans-Serif" font-size="10.00">DatabaseManager::updateComponent</text>
</a>
</g>
</g>
<!-- Node1&#45;&gt;Node4 -->
<g id="edge3_Node000001_Node000004" class="edge">
<title>Node1&#45;&gt;Node4</title>
<g id="a_edge3_Node000001_Node000004"><a xlink:title=" ">
<path fill="none" stroke="#63b8ff" d="M449.74,-28.88C441.36,-28.16 432.79,-27.41 424.26,-26.68"/>
<polygon fill="#63b8ff" stroke="#63b8ff" points="449.57,-32.38 459.84,-29.75 450.17,-25.41 449.57,-32.38"/>
</a>
</g>
</g>
<!-- Node3 -->
<g id="Node000003" class="node">
<title>Node3</title>
<g id="a_Node000003"><a xlink:href="classInventoryManager.html#ab577116c3c234997fc05af6c6689c4d0" target="_top" xlink:title="Agrega un nuevo componente al inventario.">
<polygon fill="white" stroke="#666666" points="186,-67.5 0,-67.5 0,-48.5 186,-48.5 186,-67.5"/>
<text text-anchor="middle" x="93" y="-55.5" font-family="Helvetica,sans-Serif" font-size="10.00">InventoryManager::addComponent</text>
</a>
</g>
</g>
<!-- Node2&#45;&gt;Node3 -->
<g id="edge2_Node000002_Node000003" class="edge">
<title>Node2&#45;&gt;Node3</title>
<g id="a_edge2_Node000002_Node000003"><a xlink:title=" ">
<path fill="none" stroke="#63b8ff" d="M219.69,-56.9C208.48,-57 197.12,-57.1 186.05,-57.19"/>
<polygon fill="#63b8ff" stroke="#63b8ff" points="219.95,-60.4 229.92,-56.81 219.89,-53.4 219.95,-60.4"/>
</a>
</g>
</g>
<!-- Node5 -->
<g id="Node000005" class="node">
<title>Node5</title>
<g id="a_Node000005"><a xlink:href="classInventoryManager.html#adce8983cba552c3c2490bec21b48e5c4" target="_top" xlink:title="Actualiza los datos de un componente existente en el inventario.">
<polygon fill="white" stroke="#666666" points="166,-30 20,-30 20,0 166,0 166,-30"/>
<text text-anchor="start" x="28" y="-18" font-family="Helvetica,sans-Serif" font-size="10.00">InventoryManager::update</text>
<text text-anchor="middle" x="93" y="-7" font-family="Helvetica,sans-Serif" font-size="10.00">Component</text>
</a>
</g>
</g>
<!-- Node4&#45;&gt;Node5 -->
<g id="edge4_Node000004_Node000005" class="edge">
<title>Node4&#45;&gt;Node5</title>
<g id="a_edge4_Node000004_Node000005"><a xlink:title=" ">
<path fill="none" stroke="#63b8ff" d="M211.83,-16.55C196.33,-16.35 180.72,-16.14 166.18,-15.95"/>
<polygon fill="#63b8ff" stroke="#63b8ff" points="211.95,-20.05 222,-16.68 212.04,-13.05 211.95,-20.05"/>
</a>
</g>
</g>
</g>
</svg>
