<?xml version="1.0" encoding="UTF-8" standalone="no"?>
<!DOCTYPE svg PUBLIC "-//W3C//DTD SVG 1.1//EN"
 "http://www.w3.org/Graphics/SVG/1.1/DTD/svg11.dtd">
<!-- Generated by graphviz version 2.43.0 (0)
 -->
<!-- Title: DatabaseManager::openDatabase Pages: 1 -->
<svg width="564pt" height="27pt"
 viewBox="0.00 0.00 564.00 27.00" xmlns="http://www.w3.org/2000/svg" xmlns:xlink="http://www.w3.org/1999/xlink">
<g id="graph0" class="graph" transform="scale(1 1) rotate(0) translate(4 23)">
<title>DatabaseManager::openDatabase</title>
<!-- Node1 -->
<g id="Node000001" class="node">
<title>Node1</title>
<g id="a_Node000001"><a xlink:title="Abre una conexión a la base de datos SQLite en la ruta especificada.">
<polygon fill="#999999" stroke="#666666" points="556,-19 374,-19 374,0 556,0 556,-19"/>
<text text-anchor="middle" x="465" y="-7" font-family="Helvetica,sans-Serif" font-size="10.00">DatabaseManager::openDatabase</text>
</a>
</g>
</g>
<!-- Node2 -->
<g id="Node000002" class="node">
<title>Node2</title>
<g id="a_Node000002"><a xlink:href="classInventoryManager.html#a0442362e8a24823613cc04eea912844a" target="_top" xlink:title="Inicializa el gestor de inventario abriendo la base de datos.">
<polygon fill="white" stroke="#666666" points="338,-19 184,-19 184,0 338,0 338,-19"/>
<text text-anchor="middle" x="261" y="-7" font-family="Helvetica,sans-Serif" font-size="10.00">InventoryManager::initialize</text>
</a>
</g>
</g>
<!-- Node1&#45;&gt;Node2 -->
<g id="edge1_Node000001_Node000002" class="edge">
<title>Node1&#45;&gt;Node2</title>
<g id="a_edge1_Node000001_Node000002"><a xlink:title=" ">
<path fill="none" stroke="#63b8ff" d="M363.78,-9.5C355.11,-9.5 346.44,-9.5 338.01,-9.5"/>
<polygon fill="#63b8ff" stroke="#63b8ff" points="363.93,-13 373.93,-9.5 363.93,-6 363.93,-13"/>
</a>
</g>
</g>
<!-- Node3 -->
<g id="Node000003" class="node">
<title>Node3</title>
<g id="a_Node000003"><a xlink:href="classMainWindow.html#a996c5a2b6f77944776856f08ec30858d" target="_top" xlink:title="Constructor de MainWindow.">
<polygon fill="white" stroke="#666666" points="148,-19 0,-19 0,0 148,0 148,-19"/>
<text text-anchor="middle" x="74" y="-7" font-family="Helvetica,sans-Serif" font-size="10.00">MainWindow::MainWindow</text>
</a>
</g>
</g>
<!-- Node2&#45;&gt;Node3 -->
<g id="edge2_Node000002_Node000003" class="edge">
<title>Node2&#45;&gt;Node3</title>
<g id="a_edge2_Node000002_Node000003"><a xlink:title=" ">
<path fill="none" stroke="#63b8ff" d="M173.88,-9.5C165.25,-9.5 156.54,-9.5 148.07,-9.5"/>
<polygon fill="#63b8ff" stroke="#63b8ff" points="173.95,-13 183.95,-9.5 173.95,-6 173.95,-13"/>
</a>
</g>
</g>
</g>
</svg>
