<?xml version="1.0" encoding="UTF-8" standalone="no"?>
<!DOCTYPE svg PUBLIC "-//W3C//DTD SVG 1.1//EN"
 "http://www.w3.org/Graphics/SVG/1.1/DTD/svg11.dtd">
<!-- Generated by graphviz version 2.43.0 (0)
 -->
<!-- Title: Component::location Pages: 1 -->
<svg width="586pt" height="107pt"
 viewBox="0.00 0.00 586.00 106.50" xmlns="http://www.w3.org/2000/svg" xmlns:xlink="http://www.w3.org/1999/xlink">
<g id="graph0" class="graph" transform="scale(1 1) rotate(0) translate(4 102.5)">
<title>Component::location</title>
<!-- Node1 -->
<g id="Node000001" class="node">
<title>Node1</title>
<g id="a_Node000001"><a xlink:title="Obtiene la ubicación de almacenamiento del componente.">
<polygon fill="#999999" stroke="#666666" points="578,-61.5 460,-61.5 460,-42.5 578,-42.5 578,-61.5"/>
<text text-anchor="middle" x="519" y="-49.5" font-family="Helvetica,sans-Serif" font-size="10.00">Component::location</text>
</a>
</g>
</g>
<!-- Node2 -->
<g id="Node000002" class="node">
<title>Node2</title>
<g id="a_Node000002"><a xlink:href="classDatabaseManager.html#ac81e200d31ca2d7e3ebe67b842dafbd6" target="_top" xlink:title="Inserta un nuevo componente en la tabla de componentes.">
<polygon fill="white" stroke="#666666" points="416,-98.5 230,-98.5 230,-79.5 416,-79.5 416,-98.5"/>
<text text-anchor="middle" x="323" y="-86.5" font-family="Helvetica,sans-Serif" font-size="10.00">DatabaseManager::addComponent</text>
</a>
</g>
</g>
<!-- Node1&#45;&gt;Node2 -->
<g id="edge1_Node000001_Node000002" class="edge">
<title>Node1&#45;&gt;Node2</title>
<g id="a_edge1_Node000001_Node000002"><a xlink:title=" ">
<path fill="none" stroke="#63b8ff" d="M461.85,-63.55C449.4,-66.06 436.26,-68.66 424,-71 409.1,-73.85 392.92,-76.81 378.01,-79.5"/>
<polygon fill="#63b8ff" stroke="#63b8ff" points="462.55,-66.98 471.66,-61.57 461.17,-60.12 462.55,-66.98"/>
</a>
</g>
</g>
<!-- Node4 -->
<g id="Node000004" class="node">
<title>Node4</title>
<g id="a_Node000004"><a xlink:href="classComponent.html#a8c9e2ad9835023268aa1f641af6f7d84" target="_top" xlink:title="Establece la ubicación de almacenamiento del componente.">
<polygon fill="white" stroke="#666666" points="390.5,-61.5 255.5,-61.5 255.5,-42.5 390.5,-42.5 390.5,-61.5"/>
<text text-anchor="middle" x="323" y="-49.5" font-family="Helvetica,sans-Serif" font-size="10.00">Component::setLocation</text>
</a>
</g>
</g>
<!-- Node1&#45;&gt;Node4 -->
<g id="edge3_Node000001_Node000004" class="edge">
<title>Node1&#45;&gt;Node4</title>
<g id="a_edge3_Node000001_Node000004"><a xlink:title=" ">
<path fill="none" stroke="#63b8ff" d="M449.65,-52C430.5,-52 409.72,-52 390.68,-52"/>
<polygon fill="#63b8ff" stroke="#63b8ff" points="449.79,-55.5 459.79,-52 449.79,-48.5 449.79,-55.5"/>
</a>
</g>
</g>
<!-- Node5 -->
<g id="Node000005" class="node">
<title>Node5</title>
<g id="a_Node000005"><a xlink:href="classDatabaseManager.html#ade951f0e1c52117ce0bc510427a0b52e" target="_top" xlink:title="Actualiza los datos de un componente existente.">
<polygon fill="white" stroke="#666666" points="424,-24.5 222,-24.5 222,-5.5 424,-5.5 424,-24.5"/>
<text text-anchor="middle" x="323" y="-12.5" font-family="Helvetica,sans-Serif" font-size="10.00">DatabaseManager::updateComponent</text>
</a>
</g>
</g>
<!-- Node1&#45;&gt;Node5 -->
<g id="edge4_Node000001_Node000005" class="edge">
<title>Node1&#45;&gt;Node5</title>
<g id="a_edge4_Node000001_Node000005"><a xlink:title=" ">
<path fill="none" stroke="#63b8ff" d="M461.85,-40.45C449.4,-37.94 436.26,-35.34 424,-33 409.1,-30.15 392.92,-27.19 378.01,-24.5"/>
<polygon fill="#63b8ff" stroke="#63b8ff" points="461.17,-43.88 471.66,-42.43 462.55,-37.02 461.17,-43.88"/>
</a>
</g>
</g>
<!-- Node3 -->
<g id="Node000003" class="node">
<title>Node3</title>
<g id="a_Node000003"><a xlink:href="classInventoryManager.html#ab577116c3c234997fc05af6c6689c4d0" target="_top" xlink:title="Agrega un nuevo componente al inventario.">
<polygon fill="white" stroke="#666666" points="186,-98.5 0,-98.5 0,-79.5 186,-79.5 186,-98.5"/>
<text text-anchor="middle" x="93" y="-86.5" font-family="Helvetica,sans-Serif" font-size="10.00">InventoryManager::addComponent</text>
</a>
</g>
</g>
<!-- Node2&#45;&gt;Node3 -->
<g id="edge2_Node000002_Node000003" class="edge">
<title>Node2&#45;&gt;Node3</title>
<g id="a_edge2_Node000002_Node000003"><a xlink:title=" ">
<path fill="none" stroke="#63b8ff" d="M219.69,-89C208.48,-89 197.12,-89 186.05,-89"/>
<polygon fill="#63b8ff" stroke="#63b8ff" points="219.92,-92.5 229.92,-89 219.92,-85.5 219.92,-92.5"/>
</a>
</g>
</g>
<!-- Node6 -->
<g id="Node000006" class="node">
<title>Node6</title>
<g id="a_Node000006"><a xlink:href="classInventoryManager.html#adce8983cba552c3c2490bec21b48e5c4" target="_top" xlink:title="Actualiza los datos de un componente existente en el inventario.">
<polygon fill="white" stroke="#666666" points="166,-30 20,-30 20,0 166,0 166,-30"/>
<text text-anchor="start" x="28" y="-18" font-family="Helvetica,sans-Serif" font-size="10.00">InventoryManager::update</text>
<text text-anchor="middle" x="93" y="-7" font-family="Helvetica,sans-Serif" font-size="10.00">Component</text>
</a>
</g>
</g>
<!-- Node5&#45;&gt;Node6 -->
<g id="edge5_Node000005_Node000006" class="edge">
<title>Node5&#45;&gt;Node6</title>
<g id="a_edge5_Node000005_Node000006"><a xlink:title=" ">
<path fill="none" stroke="#63b8ff" d="M211.83,-15C196.33,-15 180.72,-15 166.18,-15"/>
<polygon fill="#63b8ff" stroke="#63b8ff" points="212,-18.5 222,-15 212,-11.5 212,-18.5"/>
</a>
</g>
</g>
</g>
</svg>
