<?xml version="1.0" encoding="UTF-8" standalone="no"?>
<!DOCTYPE svg PUBLIC "-//W3C//DTD SVG 1.1//EN"
 "http://www.w3.org/Graphics/SVG/1.1/DTD/svg11.dtd">
<!-- Generated by graphviz version 2.43.0 (0)
 -->
<!-- Title: InventoryManager::updateComponent Pages: 1 -->
<svg width="574pt" height="212pt"
 viewBox="0.00 0.00 574.00 212.00" xmlns="http://www.w3.org/2000/svg" xmlns:xlink="http://www.w3.org/1999/xlink">
<g id="graph0" class="graph" transform="scale(1 1) rotate(0) translate(4 208)">
<title>InventoryManager::updateComponent</title>
<!-- Node1 -->
<g id="Node000001" class="node">
<title>Node1</title>
<g id="a_Node000001"><a xlink:title="Actualiza los datos de un componente existente en el inventario.">
<polygon fill="#999999" stroke="#666666" points="146,-116.5 0,-116.5 0,-86.5 146,-86.5 146,-116.5"/>
<text text-anchor="start" x="8" y="-104.5" font-family="Helvetica,sans-Serif" font-size="10.00">InventoryManager::update</text>
<text text-anchor="middle" x="73" y="-93.5" font-family="Helvetica,sans-Serif" font-size="10.00">Component</text>
</a>
</g>
</g>
<!-- Node2 -->
<g id="Node000002" class="node">
<title>Node2</title>
<g id="a_Node000002"><a xlink:href="classDatabaseManager.html#ade951f0e1c52117ce0bc510427a0b52e" target="_top" xlink:title="Actualiza los datos de un componente existente.">
<polygon fill="white" stroke="#666666" points="384,-111 182,-111 182,-92 384,-92 384,-111"/>
<text text-anchor="middle" x="283" y="-99" font-family="Helvetica,sans-Serif" font-size="10.00">DatabaseManager::updateComponent</text>
</a>
</g>
</g>
<!-- Node1&#45;&gt;Node2 -->
<g id="edge1_Node000001_Node000002" class="edge">
<title>Node1&#45;&gt;Node2</title>
<g id="a_edge1_Node000001_Node000002"><a xlink:title=" ">
<path fill="none" stroke="#63b8ff" d="M146.16,-101.5C154.43,-101.5 162.99,-101.5 171.61,-101.5"/>
<polygon fill="#63b8ff" stroke="#63b8ff" points="171.74,-105 181.74,-101.5 171.74,-98 171.74,-105"/>
</a>
</g>
</g>
<!-- Node3 -->
<g id="Node000003" class="node">
<title>Node3</title>
<g id="a_Node000003"><a xlink:href="classComponent.html#aa83353d3aa5d48e7b80c40f230db8dee" target="_top" xlink:title="Obtiene el identificador único del componente.">
<polygon fill="white" stroke="#666666" points="537,-204 449,-204 449,-185 537,-185 537,-204"/>
<text text-anchor="middle" x="493" y="-192" font-family="Helvetica,sans-Serif" font-size="10.00">Component::id</text>
</a>
</g>
</g>
<!-- Node2&#45;&gt;Node3 -->
<g id="edge2_Node000002_Node000003" class="edge">
<title>Node2&#45;&gt;Node3</title>
<g id="a_edge2_Node000002_Node000003"><a xlink:title=" ">
<path fill="none" stroke="#63b8ff" d="M298.47,-111.14C322.68,-126.88 373.32,-158.16 420,-176.5 425.98,-178.85 432.36,-180.97 438.77,-182.86"/>
<polygon fill="#63b8ff" stroke="#63b8ff" points="438.22,-186.33 448.79,-185.63 440.08,-179.59 438.22,-186.33"/>
</a>
</g>
</g>
<!-- Node4 -->
<g id="Node000004" class="node">
<title>Node4</title>
<g id="a_Node000004"><a xlink:href="classComponent.html#affbdac04e08e18487fb4cb139b71dbc7" target="_top" xlink:title="Obtiene la ubicación de almacenamiento del componente.">
<polygon fill="white" stroke="#666666" points="552,-167 434,-167 434,-148 552,-148 552,-167"/>
<text text-anchor="middle" x="493" y="-155" font-family="Helvetica,sans-Serif" font-size="10.00">Component::location</text>
</a>
</g>
</g>
<!-- Node2&#45;&gt;Node4 -->
<g id="edge3_Node000002_Node000004" class="edge">
<title>Node2&#45;&gt;Node4</title>
<g id="a_edge3_Node000002_Node000004"><a xlink:title=" ">
<path fill="none" stroke="#63b8ff" d="M317.19,-111.05C344.68,-118.89 384.81,-130.19 420,-139.5 427.53,-141.49 435.52,-143.55 443.34,-145.53"/>
<polygon fill="#63b8ff" stroke="#63b8ff" points="442.54,-148.94 453.09,-147.98 444.24,-142.15 442.54,-148.94"/>
</a>
</g>
</g>
<!-- Node5 -->
<g id="Node000005" class="node">
<title>Node5</title>
<g id="a_Node000005"><a xlink:href="classComponent.html#ac3e00b0de9b1817765d0f4838f04d159" target="_top" xlink:title="Obtiene el nombre descriptivo del componente.">
<polygon fill="white" stroke="#666666" points="546.5,-130 439.5,-130 439.5,-111 546.5,-111 546.5,-130"/>
<text text-anchor="middle" x="493" y="-118" font-family="Helvetica,sans-Serif" font-size="10.00">Component::name</text>
</a>
</g>
</g>
<!-- Node2&#45;&gt;Node5 -->
<g id="edge4_Node000002_Node000005" class="edge">
<title>Node2&#45;&gt;Node5</title>
<g id="a_edge4_Node000002_Node000005"><a xlink:title=" ">
<path fill="none" stroke="#63b8ff" d="M384.04,-110.64C399.45,-112.05 414.97,-113.46 429.26,-114.77"/>
<polygon fill="#63b8ff" stroke="#63b8ff" points="429.15,-118.27 439.42,-115.7 429.78,-111.3 429.15,-118.27"/>
</a>
</g>
</g>
<!-- Node6 -->
<g id="Node000006" class="node">
<title>Node6</title>
<g id="a_Node000006"><a xlink:href="classComponent.html#a67289b67df4f7f707c5ad1083feea23a" target="_top" xlink:title="Obtiene la fecha de compra del componente.">
<polygon fill="white" stroke="#666666" points="566,-93 420,-93 420,-74 566,-74 566,-93"/>
<text text-anchor="middle" x="493" y="-81" font-family="Helvetica,sans-Serif" font-size="10.00">Component::purchaseDate</text>
</a>
</g>
</g>
<!-- Node2&#45;&gt;Node6 -->
<g id="edge5_Node000002_Node000006" class="edge">
<title>Node2&#45;&gt;Node6</title>
<g id="a_edge5_Node000002_Node000006"><a xlink:title=" ">
<path fill="none" stroke="#63b8ff" d="M384.04,-92.84C392.62,-92.1 401.24,-91.35 409.66,-90.63"/>
<polygon fill="#63b8ff" stroke="#63b8ff" points="410.16,-94.1 419.82,-89.75 409.55,-87.12 410.16,-94.1"/>
</a>
</g>
</g>
<!-- Node7 -->
<g id="Node000007" class="node">
<title>Node7</title>
<g id="a_Node000007"><a xlink:href="classComponent.html#af6393dedb829b5c2527f09da4fa4d05c" target="_top" xlink:title="Obtiene la cantidad disponible del componente.">
<polygon fill="white" stroke="#666666" points="552.5,-56 433.5,-56 433.5,-37 552.5,-37 552.5,-56"/>
<text text-anchor="middle" x="493" y="-44" font-family="Helvetica,sans-Serif" font-size="10.00">Component::quantity</text>
</a>
</g>
</g>
<!-- Node2&#45;&gt;Node7 -->
<g id="edge6_Node000002_Node000007" class="edge">
<title>Node2&#45;&gt;Node7</title>
<g id="a_edge6_Node000002_Node000007"><a xlink:title=" ">
<path fill="none" stroke="#63b8ff" d="M320.08,-91.94C347.48,-84.68 386.11,-74.46 420,-65.5 428.35,-63.29 437.26,-60.94 445.85,-58.67"/>
<polygon fill="#63b8ff" stroke="#63b8ff" points="446.96,-62 455.74,-56.06 445.18,-55.23 446.96,-62"/>
</a>
</g>
</g>
<!-- Node8 -->
<g id="Node000008" class="node">
<title>Node8</title>
<g id="a_Node000008"><a xlink:href="classComponent.html#a54762b55028636c72dcf9737417239df" target="_top" xlink:title="Obtiene el tipo o categoría del componente.">
<polygon fill="white" stroke="#666666" points="543.5,-19 442.5,-19 442.5,0 543.5,0 543.5,-19"/>
<text text-anchor="middle" x="493" y="-7" font-family="Helvetica,sans-Serif" font-size="10.00">Component::type</text>
</a>
</g>
</g>
<!-- Node2&#45;&gt;Node8 -->
<g id="edge7_Node000002_Node000008" class="edge">
<title>Node2&#45;&gt;Node8</title>
<g id="a_edge7_Node000002_Node000008"><a xlink:title=" ">
<path fill="none" stroke="#63b8ff" d="M298.94,-91.96C323.39,-76.7 373.88,-46.67 420,-28.5 426.22,-26.05 432.87,-23.81 439.52,-21.8"/>
<polygon fill="#63b8ff" stroke="#63b8ff" points="440.56,-25.15 449.21,-19.03 438.63,-18.42 440.56,-25.15"/>
</a>
</g>
</g>
</g>
</svg>
