<?xml version="1.0" encoding="UTF-8" standalone="no"?>
<!DOCTYPE svg PUBLIC "-//W3C//DTD SVG 1.1//EN"
 "http://www.w3.org/Graphics/SVG/1.1/DTD/svg11.dtd">
<!-- Generated by graphviz version 2.43.0 (0)
 -->
<!-- Title: MainWindow::MainWindow Pages: 1 -->
<svg width="564pt" height="76pt"
 viewBox="0.00 0.00 564.00 75.50" xmlns="http://www.w3.org/2000/svg" xmlns:xlink="http://www.w3.org/1999/xlink">
<g id="graph0" class="graph" transform="scale(1 1) rotate(0) translate(4 71.5)">
<title>MainWindow::MainWindow</title>
<!-- Node1 -->
<g id="Node000001" class="node">
<title>Node1</title>
<g id="a_Node000001"><a xlink:title="Constructor de MainWindow.">
<polygon fill="#999999" stroke="#666666" points="148,-40 0,-40 0,-21 148,-21 148,-40"/>
<text text-anchor="middle" x="74" y="-28" font-family="Helvetica,sans-Serif" font-size="10.00">MainWindow::MainWindow</text>
</a>
</g>
</g>
<!-- Node2 -->
<g id="Node000002" class="node">
<title>Node2</title>
<g id="a_Node000002"><a xlink:href="classInventoryManager.html#a0442362e8a24823613cc04eea912844a" target="_top" xlink:title="Inicializa el gestor de inventario abriendo la base de datos.">
<polygon fill="white" stroke="#666666" points="338,-40 184,-40 184,-21 338,-21 338,-40"/>
<text text-anchor="middle" x="261" y="-28" font-family="Helvetica,sans-Serif" font-size="10.00">InventoryManager::initialize</text>
</a>
</g>
</g>
<!-- Node1&#45;&gt;Node2 -->
<g id="edge1_Node000001_Node000002" class="edge">
<title>Node1&#45;&gt;Node2</title>
<g id="a_edge1_Node000001_Node000002"><a xlink:title=" ">
<path fill="none" stroke="#63b8ff" d="M148.12,-30.5C156.54,-30.5 165.18,-30.5 173.76,-30.5"/>
<polygon fill="#63b8ff" stroke="#63b8ff" points="173.77,-34 183.77,-30.5 173.77,-27 173.77,-34"/>
</a>
</g>
</g>
<!-- Node3 -->
<g id="Node000003" class="node">
<title>Node3</title>
<g id="a_Node000003"><a xlink:href="classDatabaseManager.html#afe8b34eadd9a2f0f80a36516ff69b292" target="_top" xlink:title="Crea las tablas necesarias en la base de datos si no existen.">
<polygon fill="white" stroke="#666666" points="542,-67.5 388,-67.5 388,-37.5 542,-37.5 542,-67.5"/>
<text text-anchor="start" x="396" y="-55.5" font-family="Helvetica,sans-Serif" font-size="10.00">DatabaseManager::initialize</text>
<text text-anchor="middle" x="465" y="-44.5" font-family="Helvetica,sans-Serif" font-size="10.00">Tables</text>
</a>
</g>
</g>
<!-- Node2&#45;&gt;Node3 -->
<g id="edge2_Node000002_Node000003" class="edge">
<title>Node2&#45;&gt;Node3</title>
<g id="a_edge2_Node000002_Node000003"><a xlink:title=" ">
<path fill="none" stroke="#63b8ff" d="M338.08,-38.79C351.09,-40.2 364.69,-41.68 377.94,-43.13"/>
<polygon fill="#63b8ff" stroke="#63b8ff" points="377.67,-46.62 387.99,-44.22 378.43,-39.66 377.67,-46.62"/>
</a>
</g>
</g>
<!-- Node4 -->
<g id="Node000004" class="node">
<title>Node4</title>
<g id="a_Node000004"><a xlink:href="classDatabaseManager.html#addc09029100f4c2fb131a8ac98a5dedb" target="_top" xlink:title="Abre una conexión a la base de datos SQLite en la ruta especificada.">
<polygon fill="white" stroke="#666666" points="556,-19 374,-19 374,0 556,0 556,-19"/>
<text text-anchor="middle" x="465" y="-7" font-family="Helvetica,sans-Serif" font-size="10.00">DatabaseManager::openDatabase</text>
</a>
</g>
</g>
<!-- Node2&#45;&gt;Node4 -->
<g id="edge3_Node000002_Node000004" class="edge">
<title>Node2&#45;&gt;Node4</title>
<g id="a_edge3_Node000002_Node000004"><a xlink:title=" ">
<path fill="none" stroke="#63b8ff" d="M338.08,-22.59C346.44,-21.72 355.04,-20.83 363.64,-19.93"/>
<polygon fill="#63b8ff" stroke="#63b8ff" points="364.13,-23.4 373.71,-18.89 363.4,-16.44 364.13,-23.4"/>
</a>
</g>
</g>
</g>
</svg>
