<?xml version="1.0" encoding="UTF-8" standalone="no"?>
<!DOCTYPE svg PUBLIC "-//W3C//DTD SVG 1.1//EN"
 "http://www.w3.org/Graphics/SVG/1.1/DTD/svg11.dtd">
<!-- Generated by graphviz version 2.43.0 (0)
 -->
<!-- Title: Component.h Pages: 1 -->
<svg width="490pt" height="247pt"
 viewBox="0.00 0.00 490.00 247.00" xmlns="http://www.w3.org/2000/svg" xmlns:xlink="http://www.w3.org/1999/xlink">
<g id="graph0" class="graph" transform="scale(1 1) rotate(0) translate(4 243)">
<title>Component.h</title>
<!-- Node1 -->
<g id="Node000001" class="node">
<title>Node1</title>
<g id="a_Node000001"><a xlink:title="Define la clase Component, que representa un componente de inventario con propiedades como id,...">
<polygon fill="#999999" stroke="#666666" points="251.5,-239 169.5,-239 169.5,-220 251.5,-220 251.5,-239"/>
<text text-anchor="middle" x="210.5" y="-227" font-family="Helvetica,sans-Serif" font-size="10.00">Component.h</text>
</a>
</g>
</g>
<!-- Node2 -->
<g id="Node000002" class="node">
<title>Node2</title>
<g id="a_Node000002"><a xlink:href="Component_8cpp.html" target="_top" xlink:title="Implementación de los métodos de la clase Component.">
<polygon fill="white" stroke="#666666" points="93,-184 0,-184 0,-165 93,-165 93,-184"/>
<text text-anchor="middle" x="46.5" y="-172" font-family="Helvetica,sans-Serif" font-size="10.00">Component.cpp</text>
</a>
</g>
</g>
<!-- Node1&#45;&gt;Node2 -->
<g id="edge1_Node000001_Node000002" class="edge">
<title>Node1&#45;&gt;Node2</title>
<g id="a_edge1_Node000001_Node000002"><a xlink:title=" ">
<path fill="none" stroke="#63b8ff" d="M174.29,-216.8C143.68,-206.91 100.55,-192.97 73.06,-184.08"/>
<polygon fill="#63b8ff" stroke="#63b8ff" points="173.56,-220.24 184.15,-219.98 175.71,-213.58 173.56,-220.24"/>
</a>
</g>
</g>
<!-- Node3 -->
<g id="Node000003" class="node">
<title>Node3</title>
<g id="a_Node000003"><a xlink:href="DatabaseManager_8h.html" target="_top" xlink:title="Declaración de la clase DatabaseManager para gestionar la conexión y operaciones en la base de datos.">
<polygon fill="white" stroke="#666666" points="225.5,-184 111.5,-184 111.5,-165 225.5,-165 225.5,-184"/>
<text text-anchor="middle" x="168.5" y="-172" font-family="Helvetica,sans-Serif" font-size="10.00">DatabaseManager.h</text>
</a>
</g>
</g>
<!-- Node1&#45;&gt;Node3 -->
<g id="edge2_Node000001_Node000003" class="edge">
<title>Node1&#45;&gt;Node3</title>
<g id="a_edge2_Node000001_Node000003"><a xlink:title=" ">
<path fill="none" stroke="#63b8ff" d="M197.17,-211.67C189.89,-202.5 181.2,-191.52 175.31,-184.09"/>
<polygon fill="#63b8ff" stroke="#63b8ff" points="194.61,-214.08 203.56,-219.75 200.1,-209.74 194.61,-214.08"/>
</a>
</g>
</g>
<!-- Node5 -->
<g id="Node000005" class="node">
<title>Node5</title>
<g id="a_Node000005"><a xlink:href="InventoryManager_8h.html" target="_top" xlink:title="Declaración de la clase InventoryManager para la gestión de inventario.">
<polygon fill="white" stroke="#666666" points="308.5,-129 194.5,-129 194.5,-110 308.5,-110 308.5,-129"/>
<text text-anchor="middle" x="251.5" y="-117" font-family="Helvetica,sans-Serif" font-size="10.00">InventoryManager.h</text>
</a>
</g>
</g>
<!-- Node1&#45;&gt;Node5 -->
<g id="edge9_Node000001_Node000005" class="edge">
<title>Node1&#45;&gt;Node5</title>
<g id="a_edge9_Node000001_Node000005"><a xlink:title=" ">
<path fill="none" stroke="#63b8ff" d="M221.08,-211.15C225.67,-203.1 230.81,-193.28 234.5,-184 242,-165.12 247.29,-141.8 249.82,-129.33"/>
<polygon fill="#63b8ff" stroke="#63b8ff" points="217.97,-209.53 215.91,-219.93 224,-213.09 217.97,-209.53"/>
</a>
</g>
</g>
<!-- Node10 -->
<g id="Node000010" class="node">
<title>Node10</title>
<g id="a_Node000010"><a xlink:href="ReportGenerator_8h.html" target="_top" xlink:title="Declaración de la clase ReportGenerator para generar informes de componentes.">
<polygon fill="white" stroke="#666666" points="389.5,-184 283.5,-184 283.5,-165 389.5,-165 389.5,-184"/>
<text text-anchor="middle" x="336.5" y="-172" font-family="Helvetica,sans-Serif" font-size="10.00">ReportGenerator.h</text>
</a>
</g>
</g>
<!-- Node1&#45;&gt;Node10 -->
<g id="edge10_Node000001_Node000010" class="edge">
<title>Node1&#45;&gt;Node10</title>
<g id="a_edge10_Node000001_Node000010"><a xlink:title=" ">
<path fill="none" stroke="#63b8ff" d="M240.15,-216.03C263.45,-206.23 295.3,-192.83 315.89,-184.17"/>
<polygon fill="#63b8ff" stroke="#63b8ff" points="238.6,-212.88 230.74,-219.98 241.32,-219.33 238.6,-212.88"/>
</a>
</g>
</g>
<!-- Node4 -->
<g id="Node000004" class="node">
<title>Node4</title>
<g id="a_Node000004"><a xlink:href="DatabaseManager_8cpp.html" target="_top" xlink:title="Implementación de los métodos de la clase DatabaseManager para gestionar la base de datos.">
<polygon fill="white" stroke="#666666" points="176,-129 51,-129 51,-110 176,-110 176,-129"/>
<text text-anchor="middle" x="113.5" y="-117" font-family="Helvetica,sans-Serif" font-size="10.00">DatabaseManager.cpp</text>
</a>
</g>
</g>
<!-- Node3&#45;&gt;Node4 -->
<g id="edge3_Node000003_Node000004" class="edge">
<title>Node3&#45;&gt;Node4</title>
<g id="a_edge3_Node000003_Node000004"><a xlink:title=" ">
<path fill="none" stroke="#63b8ff" d="M152.21,-157.8C142.46,-148.41 130.45,-136.83 122.41,-129.09"/>
<polygon fill="#63b8ff" stroke="#63b8ff" points="149.79,-160.33 159.42,-164.75 154.65,-155.29 149.79,-160.33"/>
</a>
</g>
</g>
<!-- Node3&#45;&gt;Node5 -->
<g id="edge4_Node000003_Node000005" class="edge">
<title>Node3&#45;&gt;Node5</title>
<g id="a_edge4_Node000003_Node000005"><a xlink:title=" ">
<path fill="none" stroke="#63b8ff" d="M190.54,-159.42C205.61,-149.81 225.09,-137.37 237.92,-129.17"/>
<polygon fill="#63b8ff" stroke="#63b8ff" points="188.38,-156.65 181.84,-164.98 192.15,-162.55 188.38,-156.65"/>
</a>
</g>
</g>
<!-- Node6 -->
<g id="Node000006" class="node">
<title>Node6</title>
<g id="a_Node000006"><a xlink:href="InventoryManager_8cpp.html" target="_top" xlink:title="Implementación de los métodos de la clase InventoryManager para la gestión de inventario.">
<polygon fill="white" stroke="#666666" points="274,-74 149,-74 149,-55 274,-55 274,-74"/>
<text text-anchor="middle" x="211.5" y="-62" font-family="Helvetica,sans-Serif" font-size="10.00">InventoryManager.cpp</text>
</a>
</g>
</g>
<!-- Node5&#45;&gt;Node6 -->
<g id="edge5_Node000005_Node000006" class="edge">
<title>Node5&#45;&gt;Node6</title>
<g id="a_edge5_Node000005_Node000006"><a xlink:title=" ">
<path fill="none" stroke="#63b8ff" d="M238.8,-101.67C231.87,-92.5 223.59,-81.52 217.98,-74.09"/>
<polygon fill="#63b8ff" stroke="#63b8ff" points="236.08,-103.87 244.89,-109.75 241.66,-99.66 236.08,-103.87"/>
</a>
</g>
</g>
<!-- Node7 -->
<g id="Node000007" class="node">
<title>Node7</title>
<g id="a_Node000007"><a xlink:href="MainWindow_8h.html" target="_top" xlink:title="Declaración de la clase MainWindow para la interfaz principal de la aplicación.">
<polygon fill="white" stroke="#666666" points="380.5,-74 292.5,-74 292.5,-55 380.5,-55 380.5,-74"/>
<text text-anchor="middle" x="336.5" y="-62" font-family="Helvetica,sans-Serif" font-size="10.00">MainWindow.h</text>
</a>
</g>
</g>
<!-- Node5&#45;&gt;Node7 -->
<g id="edge6_Node000005_Node000007" class="edge">
<title>Node5&#45;&gt;Node7</title>
<g id="a_edge6_Node000005_Node000007"><a xlink:title=" ">
<path fill="none" stroke="#63b8ff" d="M274.07,-104.42C289.5,-94.81 309.45,-82.37 322.59,-74.17"/>
<polygon fill="#63b8ff" stroke="#63b8ff" points="271.79,-101.72 265.16,-109.98 275.49,-107.66 271.79,-101.72"/>
</a>
</g>
</g>
<!-- Node8 -->
<g id="Node000008" class="node">
<title>Node8</title>
<g id="a_Node000008"><a xlink:href="MainWindow_8cpp.html" target="_top" xlink:title="Implementación de la clase MainWindow para la interfaz principal de la aplicación.">
<polygon fill="white" stroke="#666666" points="337,-19 238,-19 238,0 337,0 337,-19"/>
<text text-anchor="middle" x="287.5" y="-7" font-family="Helvetica,sans-Serif" font-size="10.00">MainWindow.cpp</text>
</a>
</g>
</g>
<!-- Node7&#45;&gt;Node8 -->
<g id="edge7_Node000007_Node000008" class="edge">
<title>Node7&#45;&gt;Node8</title>
<g id="a_edge7_Node000007_Node000008"><a xlink:title=" ">
<path fill="none" stroke="#63b8ff" d="M321.47,-47.24C312.88,-37.95 302.46,-26.68 295.44,-19.09"/>
<polygon fill="#63b8ff" stroke="#63b8ff" points="319.05,-49.78 328.41,-54.75 324.19,-45.03 319.05,-49.78"/>
</a>
</g>
</g>
<!-- Node9 -->
<g id="Node000009" class="node">
<title>Node9</title>
<g id="a_Node000009"><a xlink:href="main_8cpp.html" target="_top" xlink:title="Punto de entrada de la aplicación de inventario.">
<polygon fill="white" stroke="#666666" points="417.5,-19 355.5,-19 355.5,0 417.5,0 417.5,-19"/>
<text text-anchor="middle" x="386.5" y="-7" font-family="Helvetica,sans-Serif" font-size="10.00">main.cpp</text>
</a>
</g>
</g>
<!-- Node7&#45;&gt;Node9 -->
<g id="edge8_Node000007_Node000009" class="edge">
<title>Node7&#45;&gt;Node9</title>
<g id="a_edge8_Node000007_Node000009"><a xlink:title=" ">
<path fill="none" stroke="#63b8ff" d="M351.84,-47.24C360.6,-37.95 371.24,-26.68 378.4,-19.09"/>
<polygon fill="#63b8ff" stroke="#63b8ff" points="349.07,-45.07 344.76,-54.75 354.16,-49.88 349.07,-45.07"/>
</a>
</g>
</g>
<!-- Node10&#45;&gt;Node7 -->
<g id="edge11_Node000010_Node000007" class="edge">
<title>Node10&#45;&gt;Node7</title>
<g id="a_edge11_Node000010_Node000007"><a xlink:title=" ">
<path fill="none" stroke="#63b8ff" d="M336.5,-154.48C336.5,-130.84 336.5,-91.5 336.5,-74.16"/>
<polygon fill="#63b8ff" stroke="#63b8ff" points="333,-154.66 336.5,-164.66 340,-154.66 333,-154.66"/>
</a>
</g>
</g>
<!-- Node11 -->
<g id="Node000011" class="node">
<title>Node11</title>
<g id="a_Node000011"><a xlink:href="ReportGenerator_8cpp.html" target="_top" xlink:title="Implementación de los métodos de la clase ReportGenerator para generación de informes en CSV y PDF.">
<polygon fill="white" stroke="#666666" points="482,-129 365,-129 365,-110 482,-110 482,-129"/>
<text text-anchor="middle" x="423.5" y="-117" font-family="Helvetica,sans-Serif" font-size="10.00">ReportGenerator.cpp</text>
</a>
</g>
</g>
<!-- Node10&#45;&gt;Node11 -->
<g id="edge12_Node000010_Node000011" class="edge">
<title>Node10&#45;&gt;Node11</title>
<g id="a_edge12_Node000010_Node000011"><a xlink:title=" ">
<path fill="none" stroke="#63b8ff" d="M359.16,-159.7C375.01,-150.04 395.69,-137.44 409.27,-129.17"/>
<polygon fill="#63b8ff" stroke="#63b8ff" points="357.2,-156.79 350.48,-164.98 360.84,-162.77 357.2,-156.79"/>
</a>
</g>
</g>
</g>
</svg>
