<?xml version="1.0" encoding="UTF-8" standalone="no"?>
<!DOCTYPE svg PUBLIC "-//W3C//DTD SVG 1.1//EN"
 "http://www.w3.org/Graphics/SVG/1.1/DTD/svg11.dtd">
<!-- Generated by graphviz version 2.43.0 (0)
 -->
<!-- Title: DatabaseManager.cpp Pages: 1 -->
<svg width="551pt" height="192pt"
 viewBox="0.00 0.00 551.00 192.00" xmlns="http://www.w3.org/2000/svg" xmlns:xlink="http://www.w3.org/1999/xlink">
<g id="graph0" class="graph" transform="scale(1 1) rotate(0) translate(4 188)">
<title>DatabaseManager.cpp</title>
<!-- Node1 -->
<g id="Node000001" class="node">
<title>Node1</title>
<g id="a_Node000001"><a xlink:title="Implementación de los métodos de la clase DatabaseManager para gestionar la base de datos.">
<polygon fill="#999999" stroke="#666666" points="422.5,-184 297.5,-184 297.5,-165 422.5,-165 422.5,-184"/>
<text text-anchor="middle" x="360" y="-172" font-family="Helvetica,sans-Serif" font-size="10.00">DatabaseManager.cpp</text>
</a>
</g>
</g>
<!-- Node2 -->
<g id="Node000002" class="node">
<title>Node2</title>
<g id="a_Node000002"><a xlink:href="DatabaseManager_8h.html" target="_top" xlink:title="Declaración de la clase DatabaseManager para gestionar la conexión y operaciones en la base de datos.">
<polygon fill="white" stroke="#666666" points="225,-129 111,-129 111,-110 225,-110 225,-129"/>
<text text-anchor="middle" x="168" y="-117" font-family="Helvetica,sans-Serif" font-size="10.00">DatabaseManager.h</text>
</a>
</g>
</g>
<!-- Node1&#45;&gt;Node2 -->
<g id="edge1_Node000001_Node000002" class="edge">
<title>Node1&#45;&gt;Node2</title>
<g id="a_edge1_Node000001_Node000002"><a xlink:title=" ">
<path fill="none" stroke="#63b8ff" d="M329.15,-164.98C296.5,-155.97 244.8,-141.7 208.8,-131.76"/>
<polygon fill="#63b8ff" stroke="#63b8ff" points="209.66,-128.37 199.09,-129.08 207.8,-135.12 209.66,-128.37"/>
</a>
</g>
</g>
<!-- Node9 -->
<g id="Node000009" class="node">
<title>Node9</title>
<g id="a_Node000009"><a xlink:title=" ">
<polygon fill="#e0e0e0" stroke="#999999" points="311,-129 243,-129 243,-110 311,-110 311,-129"/>
<text text-anchor="middle" x="277" y="-117" font-family="Helvetica,sans-Serif" font-size="10.00">QSqlQuery</text>
</a>
</g>
</g>
<!-- Node1&#45;&gt;Node9 -->
<g id="edge8_Node000001_Node000009" class="edge">
<title>Node1&#45;&gt;Node9</title>
<g id="a_edge8_Node000001_Node000009"><a xlink:title=" ">
<path fill="none" stroke="#63b8ff" d="M346.66,-164.98C333.91,-156.84 314.45,-144.41 299.33,-134.76"/>
<polygon fill="#63b8ff" stroke="#63b8ff" points="300.89,-131.6 290.58,-129.17 297.12,-137.5 300.89,-131.6"/>
</a>
</g>
</g>
<!-- Node10 -->
<g id="Node000010" class="node">
<title>Node10</title>
<g id="a_Node000010"><a xlink:title=" ">
<polygon fill="#e0e0e0" stroke="#999999" points="391,-129 329,-129 329,-110 391,-110 391,-129"/>
<text text-anchor="middle" x="360" y="-117" font-family="Helvetica,sans-Serif" font-size="10.00">QSqlError</text>
</a>
</g>
</g>
<!-- Node1&#45;&gt;Node10 -->
<g id="edge9_Node000001_Node000010" class="edge">
<title>Node1&#45;&gt;Node10</title>
<g id="a_edge9_Node000001_Node000010"><a xlink:title=" ">
<path fill="none" stroke="#63b8ff" d="M360,-164.75C360,-157.8 360,-147.85 360,-139.13"/>
<polygon fill="#63b8ff" stroke="#63b8ff" points="363.5,-139.09 360,-129.09 356.5,-139.09 363.5,-139.09"/>
</a>
</g>
</g>
<!-- Node11 -->
<g id="Node000011" class="node">
<title>Node11</title>
<g id="a_Node000011"><a xlink:title=" ">
<polygon fill="#e0e0e0" stroke="#999999" points="468.5,-129 409.5,-129 409.5,-110 468.5,-110 468.5,-129"/>
<text text-anchor="middle" x="439" y="-117" font-family="Helvetica,sans-Serif" font-size="10.00">QVariant</text>
</a>
</g>
</g>
<!-- Node1&#45;&gt;Node11 -->
<g id="edge10_Node000001_Node000011" class="edge">
<title>Node1&#45;&gt;Node11</title>
<g id="a_edge10_Node000001_Node000011"><a xlink:title=" ">
<path fill="none" stroke="#63b8ff" d="M372.69,-164.98C384.83,-156.84 403.36,-144.41 417.75,-134.76"/>
<polygon fill="#63b8ff" stroke="#63b8ff" points="419.72,-137.65 426.08,-129.17 415.82,-131.84 419.72,-137.65"/>
</a>
</g>
</g>
<!-- Node12 -->
<g id="Node000012" class="node">
<title>Node12</title>
<g id="a_Node000012"><a xlink:title=" ">
<polygon fill="#e0e0e0" stroke="#999999" points="543,-129 487,-129 487,-110 543,-110 543,-129"/>
<text text-anchor="middle" x="515" y="-117" font-family="Helvetica,sans-Serif" font-size="10.00">QDebug</text>
</a>
</g>
</g>
<!-- Node1&#45;&gt;Node12 -->
<g id="edge11_Node000001_Node000012" class="edge">
<title>Node1&#45;&gt;Node12</title>
<g id="a_edge11_Node000001_Node000012"><a xlink:title=" ">
<path fill="none" stroke="#63b8ff" d="M384.9,-164.98C410.7,-156.16 451.22,-142.31 480.18,-132.41"/>
<polygon fill="#63b8ff" stroke="#63b8ff" points="481.57,-135.63 489.9,-129.08 479.31,-129.01 481.57,-135.63"/>
</a>
</g>
</g>
<!-- Node3 -->
<g id="Node000003" class="node">
<title>Node3</title>
<g id="a_Node000003"><a xlink:title=" ">
<polygon fill="#e0e0e0" stroke="#999999" points="56,-74 0,-74 0,-55 56,-55 56,-74"/>
<text text-anchor="middle" x="28" y="-62" font-family="Helvetica,sans-Serif" font-size="10.00">QObject</text>
</a>
</g>
</g>
<!-- Node2&#45;&gt;Node3 -->
<g id="edge2_Node000002_Node000003" class="edge">
<title>Node2&#45;&gt;Node3</title>
<g id="a_edge2_Node000002_Node000003"><a xlink:title=" ">
<path fill="none" stroke="#63b8ff" d="M145.51,-109.98C122.48,-101.27 86.46,-87.63 60.37,-77.75"/>
<polygon fill="#63b8ff" stroke="#63b8ff" points="61.49,-74.44 50.9,-74.17 59.02,-80.98 61.49,-74.44"/>
</a>
</g>
</g>
<!-- Node4 -->
<g id="Node000004" class="node">
<title>Node4</title>
<g id="a_Node000004"><a xlink:title=" ">
<polygon fill="#e0e0e0" stroke="#999999" points="160,-74 74,-74 74,-55 160,-55 160,-74"/>
<text text-anchor="middle" x="117" y="-62" font-family="Helvetica,sans-Serif" font-size="10.00">QSqlDatabase</text>
</a>
</g>
</g>
<!-- Node2&#45;&gt;Node4 -->
<g id="edge3_Node000002_Node000004" class="edge">
<title>Node2&#45;&gt;Node4</title>
<g id="a_edge3_Node000002_Node000004"><a xlink:title=" ">
<path fill="none" stroke="#63b8ff" d="M159.58,-109.75C152.23,-102.11 141.37,-90.82 132.46,-81.56"/>
<polygon fill="#63b8ff" stroke="#63b8ff" points="134.72,-78.87 125.26,-74.09 129.68,-83.72 134.72,-78.87"/>
</a>
</g>
</g>
<!-- Node5 -->
<g id="Node000005" class="node">
<title>Node5</title>
<g id="a_Node000005"><a xlink:href="Component_8h.html" target="_top" xlink:title="Define la clase Component, que representa un componente de inventario con propiedades como id,...">
<polygon fill="white" stroke="#666666" points="260,-74 178,-74 178,-55 260,-55 260,-74"/>
<text text-anchor="middle" x="219" y="-62" font-family="Helvetica,sans-Serif" font-size="10.00">Component.h</text>
</a>
</g>
</g>
<!-- Node2&#45;&gt;Node5 -->
<g id="edge4_Node000002_Node000005" class="edge">
<title>Node2&#45;&gt;Node5</title>
<g id="a_edge4_Node000002_Node000005"><a xlink:title=" ">
<path fill="none" stroke="#63b8ff" d="M176.42,-109.75C183.77,-102.11 194.63,-90.82 203.54,-81.56"/>
<polygon fill="#63b8ff" stroke="#63b8ff" points="206.32,-83.72 210.74,-74.09 201.28,-78.87 206.32,-83.72"/>
</a>
</g>
</g>
<!-- Node8 -->
<g id="Node000008" class="node">
<title>Node8</title>
<g id="a_Node000008"><a xlink:title=" ">
<polygon fill="#e0e0e0" stroke="#999999" points="325.5,-74 278.5,-74 278.5,-55 325.5,-55 325.5,-74"/>
<text text-anchor="middle" x="302" y="-62" font-family="Helvetica,sans-Serif" font-size="10.00">vector</text>
</a>
</g>
</g>
<!-- Node2&#45;&gt;Node8 -->
<g id="edge7_Node000002_Node000008" class="edge">
<title>Node2&#45;&gt;Node8</title>
<g id="a_edge7_Node000002_Node000008"><a xlink:title=" ">
<path fill="none" stroke="#63b8ff" d="M189.53,-109.98C211.47,-101.3 245.74,-87.75 270.69,-77.88"/>
<polygon fill="#63b8ff" stroke="#63b8ff" points="272.07,-81.1 280.08,-74.17 269.49,-74.59 272.07,-81.1"/>
</a>
</g>
</g>
<!-- Node6 -->
<g id="Node000006" class="node">
<title>Node6</title>
<g id="a_Node000006"><a xlink:title=" ">
<polygon fill="#e0e0e0" stroke="#999999" points="211.5,-19 158.5,-19 158.5,0 211.5,0 211.5,-19"/>
<text text-anchor="middle" x="185" y="-7" font-family="Helvetica,sans-Serif" font-size="10.00">QString</text>
</a>
</g>
</g>
<!-- Node5&#45;&gt;Node6 -->
<g id="edge5_Node000005_Node000006" class="edge">
<title>Node5&#45;&gt;Node6</title>
<g id="a_edge5_Node000005_Node000006"><a xlink:title=" ">
<path fill="none" stroke="#63b8ff" d="M213.39,-54.75C208.68,-47.42 201.83,-36.73 196.03,-27.7"/>
<polygon fill="#63b8ff" stroke="#63b8ff" points="198.86,-25.62 190.51,-19.09 192.96,-29.4 198.86,-25.62"/>
</a>
</g>
</g>
<!-- Node7 -->
<g id="Node000007" class="node">
<title>Node7</title>
<g id="a_Node000007"><a xlink:title=" ">
<polygon fill="#e0e0e0" stroke="#999999" points="276.5,-19 229.5,-19 229.5,0 276.5,0 276.5,-19"/>
<text text-anchor="middle" x="253" y="-7" font-family="Helvetica,sans-Serif" font-size="10.00">QDate</text>
</a>
</g>
</g>
<!-- Node5&#45;&gt;Node7 -->
<g id="edge6_Node000005_Node000007" class="edge">
<title>Node5&#45;&gt;Node7</title>
<g id="a_edge6_Node000005_Node000007"><a xlink:title=" ">
<path fill="none" stroke="#63b8ff" d="M224.61,-54.75C229.32,-47.42 236.17,-36.73 241.97,-27.7"/>
<polygon fill="#63b8ff" stroke="#63b8ff" points="245.04,-29.4 247.49,-19.09 239.14,-25.62 245.04,-29.4"/>
</a>
</g>
</g>
</g>
</svg>
