<?xml version="1.0" encoding="UTF-8" standalone="no"?>
<!DOCTYPE svg PUBLIC "-//W3C//DTD SVG 1.1//EN"
 "http://www.w3.org/Graphics/SVG/1.1/DTD/svg11.dtd">
<!-- Generated by graphviz version 2.43.0 (0)
 -->
<!-- Title: DatabaseManager.h Pages: 1 -->
<svg width="351pt" height="192pt"
 viewBox="0.00 0.00 350.50 192.00" xmlns="http://www.w3.org/2000/svg" xmlns:xlink="http://www.w3.org/1999/xlink">
<g id="graph0" class="graph" transform="scale(1 1) rotate(0) translate(4 188)">
<title>DatabaseManager.h</title>
<!-- Node1 -->
<g id="Node000001" class="node">
<title>Node1</title>
<g id="a_Node000001"><a xlink:title="Declaración de la clase DatabaseManager para gestionar la conexión y operaciones en la base de datos.">
<polygon fill="#999999" stroke="#666666" points="188.5,-184 74.5,-184 74.5,-165 188.5,-165 188.5,-184"/>
<text text-anchor="middle" x="131.5" y="-172" font-family="Helvetica,sans-Serif" font-size="10.00">DatabaseManager.h</text>
</a>
</g>
</g>
<!-- Node2 -->
<g id="Node000002" class="node">
<title>Node2</title>
<g id="a_Node000002"><a xlink:href="DatabaseManager_8cpp.html" target="_top" xlink:title="Implementación de los métodos de la clase DatabaseManager para gestionar la base de datos.">
<polygon fill="white" stroke="#666666" points="125,-129 0,-129 0,-110 125,-110 125,-129"/>
<text text-anchor="middle" x="62.5" y="-117" font-family="Helvetica,sans-Serif" font-size="10.00">DatabaseManager.cpp</text>
</a>
</g>
</g>
<!-- Node1&#45;&gt;Node2 -->
<g id="edge1_Node000001_Node000002" class="edge">
<title>Node1&#45;&gt;Node2</title>
<g id="a_edge1_Node000001_Node000002"><a xlink:title=" ">
<path fill="none" stroke="#63b8ff" d="M112.46,-158.88C100.04,-149.34 84.26,-137.21 73.79,-129.17"/>
<polygon fill="#63b8ff" stroke="#63b8ff" points="110.35,-161.67 120.41,-164.98 114.62,-156.12 110.35,-161.67"/>
</a>
</g>
</g>
<!-- Node3 -->
<g id="Node000003" class="node">
<title>Node3</title>
<g id="a_Node000003"><a xlink:href="InventoryManager_8h.html" target="_top" xlink:title="Declaración de la clase InventoryManager para la gestión de inventario.">
<polygon fill="white" stroke="#666666" points="257.5,-129 143.5,-129 143.5,-110 257.5,-110 257.5,-129"/>
<text text-anchor="middle" x="200.5" y="-117" font-family="Helvetica,sans-Serif" font-size="10.00">InventoryManager.h</text>
</a>
</g>
</g>
<!-- Node1&#45;&gt;Node3 -->
<g id="edge2_Node000001_Node000003" class="edge">
<title>Node1&#45;&gt;Node3</title>
<g id="a_edge2_Node000001_Node000003"><a xlink:title=" ">
<path fill="none" stroke="#63b8ff" d="M150.54,-158.88C162.96,-149.34 178.74,-137.21 189.21,-129.17"/>
<polygon fill="#63b8ff" stroke="#63b8ff" points="148.38,-156.12 142.59,-164.98 152.65,-161.67 148.38,-156.12"/>
</a>
</g>
</g>
<!-- Node4 -->
<g id="Node000004" class="node">
<title>Node4</title>
<g id="a_Node000004"><a xlink:href="InventoryManager_8cpp.html" target="_top" xlink:title="Implementación de los métodos de la clase InventoryManager para la gestión de inventario.">
<polygon fill="white" stroke="#666666" points="200,-74 75,-74 75,-55 200,-55 200,-74"/>
<text text-anchor="middle" x="137.5" y="-62" font-family="Helvetica,sans-Serif" font-size="10.00">InventoryManager.cpp</text>
</a>
</g>
</g>
<!-- Node3&#45;&gt;Node4 -->
<g id="edge3_Node000003_Node000004" class="edge">
<title>Node3&#45;&gt;Node4</title>
<g id="a_edge3_Node000003_Node000004"><a xlink:title=" ">
<path fill="none" stroke="#63b8ff" d="M182.46,-103.32C171.23,-93.87 157.18,-82.06 147.81,-74.17"/>
<polygon fill="#63b8ff" stroke="#63b8ff" points="180.47,-106.23 190.38,-109.98 184.98,-100.87 180.47,-106.23"/>
</a>
</g>
</g>
<!-- Node5 -->
<g id="Node000005" class="node">
<title>Node5</title>
<g id="a_Node000005"><a xlink:href="MainWindow_8h.html" target="_top" xlink:title="Declaración de la clase MainWindow para la interfaz principal de la aplicación.">
<polygon fill="white" stroke="#666666" points="306.5,-74 218.5,-74 218.5,-55 306.5,-55 306.5,-74"/>
<text text-anchor="middle" x="262.5" y="-62" font-family="Helvetica,sans-Serif" font-size="10.00">MainWindow.h</text>
</a>
</g>
</g>
<!-- Node3&#45;&gt;Node5 -->
<g id="edge4_Node000003_Node000005" class="edge">
<title>Node3&#45;&gt;Node5</title>
<g id="a_edge4_Node000003_Node000005"><a xlink:title=" ">
<path fill="none" stroke="#63b8ff" d="M218.25,-103.32C229.31,-93.87 243.13,-82.06 252.36,-74.17"/>
<polygon fill="#63b8ff" stroke="#63b8ff" points="215.79,-100.83 210.46,-109.98 220.34,-106.15 215.79,-100.83"/>
</a>
</g>
</g>
<!-- Node6 -->
<g id="Node000006" class="node">
<title>Node6</title>
<g id="a_Node000006"><a xlink:href="MainWindow_8cpp.html" target="_top" xlink:title="Implementación de la clase MainWindow para la interfaz principal de la aplicación.">
<polygon fill="white" stroke="#666666" points="262,-19 163,-19 163,0 262,0 262,-19"/>
<text text-anchor="middle" x="212.5" y="-7" font-family="Helvetica,sans-Serif" font-size="10.00">MainWindow.cpp</text>
</a>
</g>
</g>
<!-- Node5&#45;&gt;Node6 -->
<g id="edge5_Node000005_Node000006" class="edge">
<title>Node5&#45;&gt;Node6</title>
<g id="a_edge5_Node000005_Node000006"><a xlink:title=" ">
<path fill="none" stroke="#63b8ff" d="M247.16,-47.24C238.4,-37.95 227.76,-26.68 220.6,-19.09"/>
<polygon fill="#63b8ff" stroke="#63b8ff" points="244.84,-49.88 254.24,-54.75 249.93,-45.07 244.84,-49.88"/>
</a>
</g>
</g>
<!-- Node7 -->
<g id="Node000007" class="node">
<title>Node7</title>
<g id="a_Node000007"><a xlink:href="main_8cpp.html" target="_top" xlink:title="Punto de entrada de la aplicación de inventario.">
<polygon fill="white" stroke="#666666" points="342.5,-19 280.5,-19 280.5,0 342.5,0 342.5,-19"/>
<text text-anchor="middle" x="311.5" y="-7" font-family="Helvetica,sans-Serif" font-size="10.00">main.cpp</text>
</a>
</g>
</g>
<!-- Node5&#45;&gt;Node7 -->
<g id="edge6_Node000005_Node000007" class="edge">
<title>Node5&#45;&gt;Node7</title>
<g id="a_edge6_Node000005_Node000007"><a xlink:title=" ">
<path fill="none" stroke="#63b8ff" d="M277.53,-47.24C286.12,-37.95 296.54,-26.68 303.56,-19.09"/>
<polygon fill="#63b8ff" stroke="#63b8ff" points="274.81,-45.03 270.59,-54.75 279.95,-49.78 274.81,-45.03"/>
</a>
</g>
</g>
</g>
</svg>
