<?xml version="1.0" encoding="UTF-8" standalone="no"?>
<!DOCTYPE svg PUBLIC "-//W3C//DTD SVG 1.1//EN"
 "http://www.w3.org/Graphics/SVG/1.1/DTD/svg11.dtd">
<!-- Generated by graphviz version 2.43.0 (0)
 -->
<!-- Title: Gráfico de jerarquía de clases Pages: 1 -->
<svg width="206pt" height="101pt"
 viewBox="0.00 0.00 206.00 101.00" xmlns="http://www.w3.org/2000/svg" xmlns:xlink="http://www.w3.org/1999/xlink">
<g id="graph0" class="graph" transform="scale(1 1) rotate(0) translate(4 97)">
<title>Gráfico de jerarquía de clases</title>
<!-- Node0 -->
<g id="Node000000" class="node">
<title>Node0</title>
<g id="a_Node000000"><a xlink:title=" ">
<polygon fill="#e0e0e0" stroke="#999999" points="56,-56 0,-56 0,-37 56,-37 56,-56"/>
<text text-anchor="middle" x="28" y="-44" font-family="Helvetica,sans-Serif" font-size="10.00">QObject</text>
</a>
</g>
</g>
<!-- Node1 -->
<g id="Node000001" class="node">
<title>Node1</title>
<g id="a_Node000001"><a xlink:href="classDatabaseManager.html" target="_top" xlink:title="Clase que administra la conexión y las operaciones CRUD sobre la base de datos de componentes.">
<polygon fill="white" stroke="#666666" points="198,-93 92,-93 92,-74 198,-74 198,-93"/>
<text text-anchor="middle" x="145" y="-81" font-family="Helvetica,sans-Serif" font-size="10.00">DatabaseManager</text>
</a>
</g>
</g>
<!-- Node0&#45;&gt;Node1 -->
<g id="edge2_Node000000_Node000001" class="edge">
<title>Node0&#45;&gt;Node1</title>
<g id="a_edge2_Node000000_Node000001"><a xlink:title=" ">
<path fill="none" stroke="#63b8ff" d="M66.08,-58.43C81.62,-63.43 99.44,-69.16 114.12,-73.89"/>
<polygon fill="#63b8ff" stroke="#63b8ff" points="66.84,-55 56.25,-55.27 64.7,-61.66 66.84,-55"/>
</a>
</g>
</g>
<!-- Node2 -->
<g id="Node000002" class="node">
<title>Node2</title>
<g id="a_Node000002"><a xlink:href="classInventoryManager.html" target="_top" xlink:title="Clase que actúa como capa intermedia entre la interfaz de usuario y la base de datos.">
<polygon fill="white" stroke="#666666" points="198,-56 92,-56 92,-37 198,-37 198,-56"/>
<text text-anchor="middle" x="145" y="-44" font-family="Helvetica,sans-Serif" font-size="10.00">InventoryManager</text>
</a>
</g>
</g>
<!-- Node0&#45;&gt;Node2 -->
<g id="edge3_Node000000_Node000002" class="edge">
<title>Node0&#45;&gt;Node2</title>
<g id="a_edge3_Node000000_Node000002"><a xlink:title=" ">
<path fill="none" stroke="#63b8ff" d="M66.44,-46.5C74.5,-46.5 83.16,-46.5 91.67,-46.5"/>
<polygon fill="#63b8ff" stroke="#63b8ff" points="66.25,-43 56.25,-46.5 66.25,-50 66.25,-43"/>
</a>
</g>
</g>
<!-- Node3 -->
<g id="Node000003" class="node">
<title>Node3</title>
<g id="a_Node000003"><a xlink:href="classReportGenerator.html" target="_top" xlink:title="Clase responsable de generar informes en distintos formatos a partir de una lista de componentes.">
<polygon fill="white" stroke="#666666" points="194,-19 96,-19 96,0 194,0 194,-19"/>
<text text-anchor="middle" x="145" y="-7" font-family="Helvetica,sans-Serif" font-size="10.00">ReportGenerator</text>
</a>
</g>
</g>
<!-- Node0&#45;&gt;Node3 -->
<g id="edge4_Node000000_Node000003" class="edge">
<title>Node0&#45;&gt;Node3</title>
<g id="a_edge4_Node000000_Node000003"><a xlink:title=" ">
<path fill="none" stroke="#63b8ff" d="M66.08,-34.57C81.62,-29.57 99.44,-23.84 114.12,-19.11"/>
<polygon fill="#63b8ff" stroke="#63b8ff" points="64.7,-31.34 56.25,-37.73 66.84,-38 64.7,-31.34"/>
</a>
</g>
</g>
</g>
</svg>
