<?xml version="1.0" encoding="UTF-8" standalone="no"?>
<!DOCTYPE svg PUBLIC "-//W3C//DTD SVG 1.1//EN"
 "http://www.w3.org/Graphics/SVG/1.1/DTD/svg11.dtd">
<!-- Generated by graphviz version 2.43.0 (0)
 -->
<!-- Title: InventoryManager.cpp Pages: 1 -->
<svg width="351pt" height="247pt"
 viewBox="0.00 0.00 350.50 247.00" xmlns="http://www.w3.org/2000/svg" xmlns:xlink="http://www.w3.org/1999/xlink">
<g id="graph0" class="graph" transform="scale(1 1) rotate(0) translate(4 243)">
<title>InventoryManager.cpp</title>
<!-- Node1 -->
<g id="Node000001" class="node">
<title>Node1</title>
<g id="a_Node000001"><a xlink:title="Implementación de los métodos de la clase InventoryManager para la gestión de inventario.">
<polygon fill="#999999" stroke="#666666" points="255.5,-239 130.5,-239 130.5,-220 255.5,-220 255.5,-239"/>
<text text-anchor="middle" x="193" y="-227" font-family="Helvetica,sans-Serif" font-size="10.00">InventoryManager.cpp</text>
</a>
</g>
</g>
<!-- Node2 -->
<g id="Node000002" class="node">
<title>Node2</title>
<g id="a_Node000002"><a xlink:href="InventoryManager_8h.html" target="_top" xlink:title="Declaración de la clase InventoryManager para la gestión de inventario.">
<polygon fill="white" stroke="#666666" points="197,-184 83,-184 83,-165 197,-165 197,-184"/>
<text text-anchor="middle" x="140" y="-172" font-family="Helvetica,sans-Serif" font-size="10.00">InventoryManager.h</text>
</a>
</g>
</g>
<!-- Node1&#45;&gt;Node2 -->
<g id="edge1_Node000001_Node000002" class="edge">
<title>Node1&#45;&gt;Node2</title>
<g id="a_edge1_Node000001_Node000002"><a xlink:title=" ">
<path fill="none" stroke="#63b8ff" d="M184.25,-219.75C176.53,-212.03 165.1,-200.6 155.78,-191.28"/>
<polygon fill="#63b8ff" stroke="#63b8ff" points="158.14,-188.69 148.59,-184.09 153.19,-193.64 158.14,-188.69"/>
</a>
</g>
</g>
<!-- Node10 -->
<g id="Node000010" class="node">
<title>Node10</title>
<g id="a_Node000010"><a xlink:title=" ">
<polygon fill="#e0e0e0" stroke="#999999" points="279,-184 215,-184 215,-165 279,-165 279,-184"/>
<text text-anchor="middle" x="247" y="-172" font-family="Helvetica,sans-Serif" font-size="10.00">algorithm</text>
</a>
</g>
</g>
<!-- Node1&#45;&gt;Node10 -->
<g id="edge12_Node000001_Node000010" class="edge">
<title>Node1&#45;&gt;Node10</title>
<g id="a_edge12_Node000001_Node000010"><a xlink:title=" ">
<path fill="none" stroke="#63b8ff" d="M201.92,-219.75C209.78,-212.03 221.43,-200.6 230.92,-191.28"/>
<polygon fill="#63b8ff" stroke="#63b8ff" points="233.56,-193.59 238.25,-184.09 228.66,-188.6 233.56,-193.59"/>
</a>
</g>
</g>
<!-- Node3 -->
<g id="Node000003" class="node">
<title>Node3</title>
<g id="a_Node000003"><a xlink:title=" ">
<polygon fill="#e0e0e0" stroke="#999999" points="56,-74 0,-74 0,-55 56,-55 56,-74"/>
<text text-anchor="middle" x="28" y="-62" font-family="Helvetica,sans-Serif" font-size="10.00">QObject</text>
</a>
</g>
</g>
<!-- Node2&#45;&gt;Node3 -->
<g id="edge2_Node000002_Node000003" class="edge">
<title>Node2&#45;&gt;Node3</title>
<g id="a_edge2_Node000002_Node000003"><a xlink:title=" ">
<path fill="none" stroke="#63b8ff" d="M130.83,-164.66C111.87,-146.38 68.11,-104.18 44.25,-81.17"/>
<polygon fill="#63b8ff" stroke="#63b8ff" points="46.61,-78.58 36.98,-74.16 41.75,-83.62 46.61,-78.58"/>
</a>
</g>
</g>
<!-- Node4 -->
<g id="Node000004" class="node">
<title>Node4</title>
<g id="a_Node000004"><a xlink:title=" ">
<polygon fill="#e0e0e0" stroke="#999999" points="121.5,-74 74.5,-74 74.5,-55 121.5,-55 121.5,-74"/>
<text text-anchor="middle" x="98" y="-62" font-family="Helvetica,sans-Serif" font-size="10.00">vector</text>
</a>
</g>
</g>
<!-- Node2&#45;&gt;Node4 -->
<g id="edge3_Node000002_Node000004" class="edge">
<title>Node2&#45;&gt;Node4</title>
<g id="a_edge3_Node000002_Node000004"><a xlink:title=" ">
<path fill="none" stroke="#63b8ff" d="M134.92,-164.86C129.89,-156.06 122.21,-141.9 117,-129 111.07,-114.31 106.02,-97.06 102.62,-84.24"/>
<polygon fill="#63b8ff" stroke="#63b8ff" points="105.95,-83.12 100.08,-74.3 99.17,-84.86 105.95,-83.12"/>
</a>
</g>
</g>
<!-- Node5 -->
<g id="Node000005" class="node">
<title>Node5</title>
<g id="a_Node000005"><a xlink:href="Component_8h.html" target="_top" xlink:title="Define la clase Component, que representa un componente de inventario con propiedades como id,...">
<polygon fill="white" stroke="#666666" points="326,-74 244,-74 244,-55 326,-55 326,-74"/>
<text text-anchor="middle" x="285" y="-62" font-family="Helvetica,sans-Serif" font-size="10.00">Component.h</text>
</a>
</g>
</g>
<!-- Node2&#45;&gt;Node5 -->
<g id="edge4_Node000002_Node000005" class="edge">
<title>Node2&#45;&gt;Node5</title>
<g id="a_edge4_Node000002_Node000005"><a xlink:title=" ">
<path fill="none" stroke="#63b8ff" d="M177.17,-164.99C199.96,-158.26 228.59,-146.95 249,-129 262.95,-116.73 272.73,-97.68 278.54,-83.65"/>
<polygon fill="#63b8ff" stroke="#63b8ff" points="281.9,-84.68 282.21,-74.09 275.36,-82.17 281.9,-84.68"/>
</a>
</g>
</g>
<!-- Node8 -->
<g id="Node000008" class="node">
<title>Node8</title>
<g id="a_Node000008"><a xlink:href="DatabaseManager_8h.html" target="_top" xlink:title="Declaración de la clase DatabaseManager para gestionar la conexión y operaciones en la base de datos.">
<polygon fill="white" stroke="#666666" points="240,-129 126,-129 126,-110 240,-110 240,-129"/>
<text text-anchor="middle" x="183" y="-117" font-family="Helvetica,sans-Serif" font-size="10.00">DatabaseManager.h</text>
</a>
</g>
</g>
<!-- Node2&#45;&gt;Node8 -->
<g id="edge7_Node000002_Node000008" class="edge">
<title>Node2&#45;&gt;Node8</title>
<g id="a_edge7_Node000002_Node000008"><a xlink:title=" ">
<path fill="none" stroke="#63b8ff" d="M147.1,-164.75C153.17,-157.26 162.09,-146.28 169.51,-137.13"/>
<polygon fill="#63b8ff" stroke="#63b8ff" points="172.45,-139.06 176.03,-129.09 167.01,-134.65 172.45,-139.06"/>
</a>
</g>
</g>
<!-- Node6 -->
<g id="Node000006" class="node">
<title>Node6</title>
<g id="a_Node000006"><a xlink:title=" ">
<polygon fill="#e0e0e0" stroke="#999999" points="277.5,-19 224.5,-19 224.5,0 277.5,0 277.5,-19"/>
<text text-anchor="middle" x="251" y="-7" font-family="Helvetica,sans-Serif" font-size="10.00">QString</text>
</a>
</g>
</g>
<!-- Node5&#45;&gt;Node6 -->
<g id="edge5_Node000005_Node000006" class="edge">
<title>Node5&#45;&gt;Node6</title>
<g id="a_edge5_Node000005_Node000006"><a xlink:title=" ">
<path fill="none" stroke="#63b8ff" d="M279.39,-54.75C274.68,-47.42 267.83,-36.73 262.03,-27.7"/>
<polygon fill="#63b8ff" stroke="#63b8ff" points="264.86,-25.62 256.51,-19.09 258.96,-29.4 264.86,-25.62"/>
</a>
</g>
</g>
<!-- Node7 -->
<g id="Node000007" class="node">
<title>Node7</title>
<g id="a_Node000007"><a xlink:title=" ">
<polygon fill="#e0e0e0" stroke="#999999" points="342.5,-19 295.5,-19 295.5,0 342.5,0 342.5,-19"/>
<text text-anchor="middle" x="319" y="-7" font-family="Helvetica,sans-Serif" font-size="10.00">QDate</text>
</a>
</g>
</g>
<!-- Node5&#45;&gt;Node7 -->
<g id="edge6_Node000005_Node000007" class="edge">
<title>Node5&#45;&gt;Node7</title>
<g id="a_edge6_Node000005_Node000007"><a xlink:title=" ">
<path fill="none" stroke="#63b8ff" d="M290.61,-54.75C295.32,-47.42 302.17,-36.73 307.97,-27.7"/>
<polygon fill="#63b8ff" stroke="#63b8ff" points="311.04,-29.4 313.49,-19.09 305.14,-25.62 311.04,-29.4"/>
</a>
</g>
</g>
<!-- Node8&#45;&gt;Node3 -->
<g id="edge8_Node000008_Node000003" class="edge">
<title>Node8&#45;&gt;Node3</title>
<g id="a_edge8_Node000008_Node000003"><a xlink:title=" ">
<path fill="none" stroke="#63b8ff" d="M158.1,-109.98C132.3,-101.16 91.78,-87.31 62.82,-77.41"/>
<polygon fill="#63b8ff" stroke="#63b8ff" points="63.69,-74.01 53.1,-74.08 61.43,-80.63 63.69,-74.01"/>
</a>
</g>
</g>
<!-- Node8&#45;&gt;Node4 -->
<g id="edge11_Node000008_Node000004" class="edge">
<title>Node8&#45;&gt;Node4</title>
<g id="a_edge11_Node000008_Node000004"><a xlink:title=" ">
<path fill="none" stroke="#63b8ff" d="M169.34,-109.98C156.16,-101.77 135.97,-89.18 120.43,-79.49"/>
<polygon fill="#63b8ff" stroke="#63b8ff" points="122.24,-76.49 111.91,-74.17 118.54,-82.43 122.24,-76.49"/>
</a>
</g>
</g>
<!-- Node8&#45;&gt;Node5 -->
<g id="edge10_Node000008_Node000005" class="edge">
<title>Node8&#45;&gt;Node5</title>
<g id="a_edge10_Node000008_Node000005"><a xlink:title=" ">
<path fill="none" stroke="#63b8ff" d="M199.39,-109.98C215.57,-101.57 240.57,-88.59 259.38,-78.81"/>
<polygon fill="#63b8ff" stroke="#63b8ff" points="261.05,-81.89 268.31,-74.17 257.83,-75.68 261.05,-81.89"/>
</a>
</g>
</g>
<!-- Node9 -->
<g id="Node000009" class="node">
<title>Node9</title>
<g id="a_Node000009"><a xlink:title=" ">
<polygon fill="#e0e0e0" stroke="#999999" points="226,-74 140,-74 140,-55 226,-55 226,-74"/>
<text text-anchor="middle" x="183" y="-62" font-family="Helvetica,sans-Serif" font-size="10.00">QSqlDatabase</text>
</a>
</g>
</g>
<!-- Node8&#45;&gt;Node9 -->
<g id="edge9_Node000008_Node000009" class="edge">
<title>Node8&#45;&gt;Node9</title>
<g id="a_edge9_Node000008_Node000009"><a xlink:title=" ">
<path fill="none" stroke="#63b8ff" d="M183,-109.75C183,-102.8 183,-92.85 183,-84.13"/>
<polygon fill="#63b8ff" stroke="#63b8ff" points="186.5,-84.09 183,-74.09 179.5,-84.09 186.5,-84.09"/>
</a>
</g>
</g>
</g>
</svg>
