<?xml version="1.0" encoding="UTF-8" standalone="no"?>
<!DOCTYPE svg PUBLIC "-//W3C//DTD SVG 1.1//EN"
 "http://www.w3.org/Graphics/SVG/1.1/DTD/svg11.dtd">
<!-- Generated by graphviz version 2.43.0 (0)
 -->
<!-- Title: InventoryManager.h Pages: 1 -->
<svg width="276pt" height="137pt"
 viewBox="0.00 0.00 275.50 137.00" xmlns="http://www.w3.org/2000/svg" xmlns:xlink="http://www.w3.org/1999/xlink">
<g id="graph0" class="graph" transform="scale(1 1) rotate(0) translate(4 133)">
<title>InventoryManager.h</title>
<!-- Node1 -->
<g id="Node000001" class="node">
<title>Node1</title>
<g id="a_Node000001"><a xlink:title="Declaración de la clase InventoryManager para la gestión de inventario.">
<polygon fill="#999999" stroke="#666666" points="181.5,-129 67.5,-129 67.5,-110 181.5,-110 181.5,-129"/>
<text text-anchor="middle" x="124.5" y="-117" font-family="Helvetica,sans-Serif" font-size="10.00">InventoryManager.h</text>
</a>
</g>
</g>
<!-- Node2 -->
<g id="Node000002" class="node">
<title>Node2</title>
<g id="a_Node000002"><a xlink:href="InventoryManager_8cpp.html" target="_top" xlink:title="Implementación de los métodos de la clase InventoryManager para la gestión de inventario.">
<polygon fill="white" stroke="#666666" points="125,-74 0,-74 0,-55 125,-55 125,-74"/>
<text text-anchor="middle" x="62.5" y="-62" font-family="Helvetica,sans-Serif" font-size="10.00">InventoryManager.cpp</text>
</a>
</g>
</g>
<!-- Node1&#45;&gt;Node2 -->
<g id="edge1_Node000001_Node000002" class="edge">
<title>Node1&#45;&gt;Node2</title>
<g id="a_edge1_Node000001_Node000002"><a xlink:title=" ">
<path fill="none" stroke="#63b8ff" d="M106.75,-103.32C95.69,-93.87 81.87,-82.06 72.64,-74.17"/>
<polygon fill="#63b8ff" stroke="#63b8ff" points="104.66,-106.15 114.54,-109.98 109.21,-100.83 104.66,-106.15"/>
</a>
</g>
</g>
<!-- Node3 -->
<g id="Node000003" class="node">
<title>Node3</title>
<g id="a_Node000003"><a xlink:href="MainWindow_8h.html" target="_top" xlink:title="Declaración de la clase MainWindow para la interfaz principal de la aplicación.">
<polygon fill="white" stroke="#666666" points="231.5,-74 143.5,-74 143.5,-55 231.5,-55 231.5,-74"/>
<text text-anchor="middle" x="187.5" y="-62" font-family="Helvetica,sans-Serif" font-size="10.00">MainWindow.h</text>
</a>
</g>
</g>
<!-- Node1&#45;&gt;Node3 -->
<g id="edge2_Node000001_Node000003" class="edge">
<title>Node1&#45;&gt;Node3</title>
<g id="a_edge2_Node000001_Node000003"><a xlink:title=" ">
<path fill="none" stroke="#63b8ff" d="M142.54,-103.32C153.77,-93.87 167.82,-82.06 177.19,-74.17"/>
<polygon fill="#63b8ff" stroke="#63b8ff" points="140.02,-100.87 134.62,-109.98 144.53,-106.23 140.02,-100.87"/>
</a>
</g>
</g>
<!-- Node4 -->
<g id="Node000004" class="node">
<title>Node4</title>
<g id="a_Node000004"><a xlink:href="MainWindow_8cpp.html" target="_top" xlink:title="Implementación de la clase MainWindow para la interfaz principal de la aplicación.">
<polygon fill="white" stroke="#666666" points="187,-19 88,-19 88,0 187,0 187,-19"/>
<text text-anchor="middle" x="137.5" y="-7" font-family="Helvetica,sans-Serif" font-size="10.00">MainWindow.cpp</text>
</a>
</g>
</g>
<!-- Node3&#45;&gt;Node4 -->
<g id="edge3_Node000003_Node000004" class="edge">
<title>Node3&#45;&gt;Node4</title>
<g id="a_edge3_Node000003_Node000004"><a xlink:title=" ">
<path fill="none" stroke="#63b8ff" d="M172.16,-47.24C163.4,-37.95 152.76,-26.68 145.6,-19.09"/>
<polygon fill="#63b8ff" stroke="#63b8ff" points="169.84,-49.88 179.24,-54.75 174.93,-45.07 169.84,-49.88"/>
</a>
</g>
</g>
<!-- Node5 -->
<g id="Node000005" class="node">
<title>Node5</title>
<g id="a_Node000005"><a xlink:href="main_8cpp.html" target="_top" xlink:title="Punto de entrada de la aplicación de inventario.">
<polygon fill="white" stroke="#666666" points="267.5,-19 205.5,-19 205.5,0 267.5,0 267.5,-19"/>
<text text-anchor="middle" x="236.5" y="-7" font-family="Helvetica,sans-Serif" font-size="10.00">main.cpp</text>
</a>
</g>
</g>
<!-- Node3&#45;&gt;Node5 -->
<g id="edge4_Node000003_Node000005" class="edge">
<title>Node3&#45;&gt;Node5</title>
<g id="a_edge4_Node000003_Node000005"><a xlink:title=" ">
<path fill="none" stroke="#63b8ff" d="M202.53,-47.24C211.12,-37.95 221.54,-26.68 228.56,-19.09"/>
<polygon fill="#63b8ff" stroke="#63b8ff" points="199.81,-45.03 195.59,-54.75 204.95,-49.78 199.81,-45.03"/>
</a>
</g>
</g>
</g>
</svg>
