<?xml version="1.0" encoding="UTF-8" standalone="no"?>
<!DOCTYPE svg PUBLIC "-//W3C//DTD SVG 1.1//EN"
 "http://www.w3.org/Graphics/SVG/1.1/DTD/svg11.dtd">
<!-- Generated by graphviz version 2.43.0 (0)
 -->
<!-- Title: MainWindow.cpp Pages: 1 -->
<svg width="698pt" height="302pt"
 viewBox="0.00 0.00 698.00 302.00" xmlns="http://www.w3.org/2000/svg" xmlns:xlink="http://www.w3.org/1999/xlink">
<g id="graph0" class="graph" transform="scale(1 1) rotate(0) translate(4 298)">
<title>MainWindow.cpp</title>
<!-- Node1 -->
<g id="Node000001" class="node">
<title>Node1</title>
<g id="a_Node000001"><a xlink:title="Implementación de la clase MainWindow para la interfaz principal de la aplicación.">
<polygon fill="#999999" stroke="#666666" points="507,-294 408,-294 408,-275 507,-275 507,-294"/>
<text text-anchor="middle" x="457.5" y="-282" font-family="Helvetica,sans-Serif" font-size="10.00">MainWindow.cpp</text>
</a>
</g>
</g>
<!-- Node2 -->
<g id="Node000002" class="node">
<title>Node2</title>
<g id="a_Node000002"><a xlink:href="MainWindow_8h.html" target="_top" xlink:title="Declaración de la clase MainWindow para la interfaz principal de la aplicación.">
<polygon fill="white" stroke="#666666" points="276.5,-239 188.5,-239 188.5,-220 276.5,-220 276.5,-239"/>
<text text-anchor="middle" x="232.5" y="-227" font-family="Helvetica,sans-Serif" font-size="10.00">MainWindow.h</text>
</a>
</g>
</g>
<!-- Node1&#45;&gt;Node2 -->
<g id="edge1_Node000001_Node000002" class="edge">
<title>Node1&#45;&gt;Node2</title>
<g id="a_edge1_Node000001_Node000002"><a xlink:title=" ">
<path fill="none" stroke="#63b8ff" d="M421.35,-274.98C382.59,-265.86 320.95,-251.33 278.7,-241.38"/>
<polygon fill="#63b8ff" stroke="#63b8ff" points="279.47,-237.97 268.93,-239.08 277.86,-244.78 279.47,-237.97"/>
</a>
</g>
</g>
<!-- Node14 -->
<g id="Node000014" class="node">
<title>Node14</title>
<g id="a_Node000014"><a xlink:title=" ">
<polygon fill="#e0e0e0" stroke="#999999" points="396.5,-239 294.5,-239 294.5,-220 396.5,-220 396.5,-239"/>
<text text-anchor="middle" x="345.5" y="-227" font-family="Helvetica,sans-Serif" font-size="10.00">ui_MainWindow.h</text>
</a>
</g>
</g>
<!-- Node1&#45;&gt;Node14 -->
<g id="edge20_Node000001_Node000014" class="edge">
<title>Node1&#45;&gt;Node14</title>
<g id="a_edge20_Node000001_Node000014"><a xlink:title=" ">
<path fill="none" stroke="#63b8ff" d="M439.51,-274.98C421.57,-266.5 393.78,-253.35 373.07,-243.54"/>
<polygon fill="#63b8ff" stroke="#63b8ff" points="374.36,-240.28 363.82,-239.17 371.36,-246.61 374.36,-240.28"/>
</a>
</g>
</g>
<!-- Node15 -->
<g id="Node000015" class="node">
<title>Node15</title>
<g id="a_Node000015"><a xlink:title=" ">
<polygon fill="#e0e0e0" stroke="#999999" points="500.5,-239 414.5,-239 414.5,-220 500.5,-220 500.5,-239"/>
<text text-anchor="middle" x="457.5" y="-227" font-family="Helvetica,sans-Serif" font-size="10.00">QMessageBox</text>
</a>
</g>
</g>
<!-- Node1&#45;&gt;Node15 -->
<g id="edge21_Node000001_Node000015" class="edge">
<title>Node1&#45;&gt;Node15</title>
<g id="a_edge21_Node000001_Node000015"><a xlink:title=" ">
<path fill="none" stroke="#63b8ff" d="M457.5,-274.75C457.5,-267.8 457.5,-257.85 457.5,-249.13"/>
<polygon fill="#63b8ff" stroke="#63b8ff" points="461,-249.09 457.5,-239.09 454,-249.09 461,-249.09"/>
</a>
</g>
</g>
<!-- Node16 -->
<g id="Node000016" class="node">
<title>Node16</title>
<g id="a_Node000016"><a xlink:title=" ">
<polygon fill="#e0e0e0" stroke="#999999" points="598.5,-239 518.5,-239 518.5,-220 598.5,-220 598.5,-239"/>
<text text-anchor="middle" x="558.5" y="-227" font-family="Helvetica,sans-Serif" font-size="10.00">QInputDialog</text>
</a>
</g>
</g>
<!-- Node1&#45;&gt;Node16 -->
<g id="edge22_Node000001_Node000016" class="edge">
<title>Node1&#45;&gt;Node16</title>
<g id="a_edge22_Node000001_Node000016"><a xlink:title=" ">
<path fill="none" stroke="#63b8ff" d="M473.73,-274.98C489.68,-266.61 514.28,-253.7 532.88,-243.95"/>
<polygon fill="#63b8ff" stroke="#63b8ff" points="534.75,-246.92 541.98,-239.17 531.5,-240.72 534.75,-246.92"/>
</a>
</g>
</g>
<!-- Node17 -->
<g id="Node000017" class="node">
<title>Node17</title>
<g id="a_Node000017"><a xlink:title=" ">
<polygon fill="#e0e0e0" stroke="#999999" points="690,-239 617,-239 617,-220 690,-220 690,-239"/>
<text text-anchor="middle" x="653.5" y="-227" font-family="Helvetica,sans-Serif" font-size="10.00">QFileDialog</text>
</a>
</g>
</g>
<!-- Node1&#45;&gt;Node17 -->
<g id="edge23_Node000001_Node000017" class="edge">
<title>Node1&#45;&gt;Node17</title>
<g id="a_edge23_Node000001_Node000017"><a xlink:title=" ">
<path fill="none" stroke="#63b8ff" d="M488.99,-274.98C522.32,-265.97 575.1,-251.7 611.85,-241.76"/>
<polygon fill="#63b8ff" stroke="#63b8ff" points="613.02,-245.07 621.76,-239.08 611.2,-238.31 613.02,-245.07"/>
</a>
</g>
</g>
<!-- Node3 -->
<g id="Node000003" class="node">
<title>Node3</title>
<g id="a_Node000003"><a xlink:title=" ">
<polygon fill="#e0e0e0" stroke="#999999" points="87,-184 0,-184 0,-165 87,-165 87,-184"/>
<text text-anchor="middle" x="43.5" y="-172" font-family="Helvetica,sans-Serif" font-size="10.00">QMainWindow</text>
</a>
</g>
</g>
<!-- Node2&#45;&gt;Node3 -->
<g id="edge2_Node000002_Node000003" class="edge">
<title>Node2&#45;&gt;Node3</title>
<g id="a_edge2_Node000002_Node000003"><a xlink:title=" ">
<path fill="none" stroke="#63b8ff" d="M202.13,-219.98C170.13,-211.01 119.54,-196.82 84.12,-186.89"/>
<polygon fill="#63b8ff" stroke="#63b8ff" points="84.68,-183.41 74.1,-184.08 82.79,-190.15 84.68,-183.41"/>
</a>
</g>
</g>
<!-- Node4 -->
<g id="Node000004" class="node">
<title>Node4</title>
<g id="a_Node000004"><a xlink:title=" ">
<polygon fill="#e0e0e0" stroke="#999999" points="225.5,-184 105.5,-184 105.5,-165 225.5,-165 225.5,-184"/>
<text text-anchor="middle" x="165.5" y="-172" font-family="Helvetica,sans-Serif" font-size="10.00">QStandardItemModel</text>
</a>
</g>
</g>
<!-- Node2&#45;&gt;Node4 -->
<g id="edge3_Node000002_Node000004" class="edge">
<title>Node2&#45;&gt;Node4</title>
<g id="a_edge3_Node000002_Node000004"><a xlink:title=" ">
<path fill="none" stroke="#63b8ff" d="M221.74,-219.98C211.73,-212.07 196.61,-200.11 184.57,-190.58"/>
<polygon fill="#63b8ff" stroke="#63b8ff" points="186.47,-187.63 176.46,-184.17 182.13,-193.12 186.47,-187.63"/>
</a>
</g>
</g>
<!-- Node5 -->
<g id="Node000005" class="node">
<title>Node5</title>
<g id="a_Node000005"><a xlink:href="InventoryManager_8h.html" target="_top" xlink:title="Declaración de la clase InventoryManager para la gestión de inventario.">
<polygon fill="white" stroke="#666666" points="357.5,-184 243.5,-184 243.5,-165 357.5,-165 357.5,-184"/>
<text text-anchor="middle" x="300.5" y="-172" font-family="Helvetica,sans-Serif" font-size="10.00">InventoryManager.h</text>
</a>
</g>
</g>
<!-- Node2&#45;&gt;Node5 -->
<g id="edge4_Node000002_Node000005" class="edge">
<title>Node2&#45;&gt;Node5</title>
<g id="a_edge4_Node000002_Node000005"><a xlink:title=" ">
<path fill="none" stroke="#63b8ff" d="M243.43,-219.98C253.58,-212.07 268.92,-200.11 281.15,-190.58"/>
<polygon fill="#63b8ff" stroke="#63b8ff" points="283.64,-193.08 289.38,-184.17 279.34,-187.56 283.64,-193.08"/>
</a>
</g>
</g>
<!-- Node13 -->
<g id="Node000013" class="node">
<title>Node13</title>
<g id="a_Node000013"><a xlink:href="ReportGenerator_8h.html" target="_top" xlink:title="Declaración de la clase ReportGenerator para generar informes de componentes.">
<polygon fill="white" stroke="#666666" points="438.5,-129 332.5,-129 332.5,-110 438.5,-110 438.5,-129"/>
<text text-anchor="middle" x="385.5" y="-117" font-family="Helvetica,sans-Serif" font-size="10.00">ReportGenerator.h</text>
</a>
</g>
</g>
<!-- Node2&#45;&gt;Node13 -->
<g id="edge15_Node000002_Node000013" class="edge">
<title>Node2&#45;&gt;Node13</title>
<g id="a_edge15_Node000002_Node000013"><a xlink:title=" ">
<path fill="none" stroke="#63b8ff" d="M270.78,-219.96C305.43,-211.5 353.06,-197.85 366.5,-184 378.14,-172.01 382.68,-153.2 384.44,-139.15"/>
<polygon fill="#63b8ff" stroke="#63b8ff" points="387.93,-139.41 385.34,-129.14 380.96,-138.79 387.93,-139.41"/>
</a>
</g>
</g>
<!-- Node6 -->
<g id="Node000006" class="node">
<title>Node6</title>
<g id="a_Node000006"><a xlink:title=" ">
<polygon fill="#e0e0e0" stroke="#999999" points="334.5,-74 278.5,-74 278.5,-55 334.5,-55 334.5,-74"/>
<text text-anchor="middle" x="306.5" y="-62" font-family="Helvetica,sans-Serif" font-size="10.00">QObject</text>
</a>
</g>
</g>
<!-- Node5&#45;&gt;Node6 -->
<g id="edge5_Node000005_Node000006" class="edge">
<title>Node5&#45;&gt;Node6</title>
<g id="a_edge5_Node000005_Node000006"><a xlink:title=" ">
<path fill="none" stroke="#63b8ff" d="M300.99,-164.66C301.96,-147.17 304.15,-107.8 305.46,-84.27"/>
<polygon fill="#63b8ff" stroke="#63b8ff" points="308.96,-84.34 306.02,-74.16 301.97,-83.95 308.96,-84.34"/>
</a>
</g>
</g>
<!-- Node7 -->
<g id="Node000007" class="node">
<title>Node7</title>
<g id="a_Node000007"><a xlink:title=" ">
<polygon fill="#e0e0e0" stroke="#999999" points="400,-74 353,-74 353,-55 400,-55 400,-74"/>
<text text-anchor="middle" x="376.5" y="-62" font-family="Helvetica,sans-Serif" font-size="10.00">vector</text>
</a>
</g>
</g>
<!-- Node5&#45;&gt;Node7 -->
<g id="edge6_Node000005_Node000007" class="edge">
<title>Node5&#45;&gt;Node7</title>
<g id="a_edge6_Node000005_Node000007"><a xlink:title=" ">
<path fill="none" stroke="#63b8ff" d="M357.63,-171.95C389.55,-167.79 426.92,-156.73 447.5,-129 462.53,-108.75 434.45,-90.09 409.29,-78.31"/>
<polygon fill="#63b8ff" stroke="#63b8ff" points="410.45,-75 399.89,-74.15 407.62,-81.4 410.45,-75"/>
</a>
</g>
</g>
<!-- Node8 -->
<g id="Node000008" class="node">
<title>Node8</title>
<g id="a_Node000008"><a xlink:href="Component_8h.html" target="_top" xlink:title="Define la clase Component, que representa un componente de inventario con propiedades como id,...">
<polygon fill="white" stroke="#666666" points="260.5,-74 178.5,-74 178.5,-55 260.5,-55 260.5,-74"/>
<text text-anchor="middle" x="219.5" y="-62" font-family="Helvetica,sans-Serif" font-size="10.00">Component.h</text>
</a>
</g>
</g>
<!-- Node5&#45;&gt;Node8 -->
<g id="edge7_Node000005_Node000008" class="edge">
<title>Node5&#45;&gt;Node8</title>
<g id="a_edge7_Node000005_Node000008"><a xlink:title=" ">
<path fill="none" stroke="#63b8ff" d="M250.75,-164.96C212.87,-157.33 165.3,-144.9 153.5,-129 138.94,-109.39 165.62,-90.45 189.29,-78.44"/>
<polygon fill="#63b8ff" stroke="#63b8ff" points="190.95,-81.52 198.45,-74.03 187.92,-75.21 190.95,-81.52"/>
</a>
</g>
</g>
<!-- Node11 -->
<g id="Node000011" class="node">
<title>Node11</title>
<g id="a_Node000011"><a xlink:href="DatabaseManager_8h.html" target="_top" xlink:title="Declaración de la clase DatabaseManager para gestionar la conexión y operaciones en la base de datos.">
<polygon fill="white" stroke="#666666" points="276.5,-129 162.5,-129 162.5,-110 276.5,-110 276.5,-129"/>
<text text-anchor="middle" x="219.5" y="-117" font-family="Helvetica,sans-Serif" font-size="10.00">DatabaseManager.h</text>
</a>
</g>
</g>
<!-- Node5&#45;&gt;Node11 -->
<g id="edge10_Node000005_Node000011" class="edge">
<title>Node5&#45;&gt;Node11</title>
<g id="a_edge10_Node000005_Node000011"><a xlink:title=" ">
<path fill="none" stroke="#63b8ff" d="M287.49,-164.98C275.04,-156.84 256.04,-144.41 241.29,-134.76"/>
<polygon fill="#63b8ff" stroke="#63b8ff" points="243.04,-131.72 232.75,-129.17 239.2,-137.57 243.04,-131.72"/>
</a>
</g>
</g>
<!-- Node9 -->
<g id="Node000009" class="node">
<title>Node9</title>
<g id="a_Node000009"><a xlink:title=" ">
<polygon fill="#e0e0e0" stroke="#999999" points="384,-19 331,-19 331,0 384,0 384,-19"/>
<text text-anchor="middle" x="357.5" y="-7" font-family="Helvetica,sans-Serif" font-size="10.00">QString</text>
</a>
</g>
</g>
<!-- Node8&#45;&gt;Node9 -->
<g id="edge8_Node000008_Node000009" class="edge">
<title>Node8&#45;&gt;Node9</title>
<g id="a_edge8_Node000008_Node000009"><a xlink:title=" ">
<path fill="none" stroke="#63b8ff" d="M241.67,-54.98C264.27,-46.3 299.56,-32.75 325.25,-22.88"/>
<polygon fill="#63b8ff" stroke="#63b8ff" points="326.84,-26.02 334.92,-19.17 324.33,-19.49 326.84,-26.02"/>
</a>
</g>
</g>
<!-- Node10 -->
<g id="Node000010" class="node">
<title>Node10</title>
<g id="a_Node000010"><a xlink:title=" ">
<polygon fill="#e0e0e0" stroke="#999999" points="243,-19 196,-19 196,0 243,0 243,-19"/>
<text text-anchor="middle" x="219.5" y="-7" font-family="Helvetica,sans-Serif" font-size="10.00">QDate</text>
</a>
</g>
</g>
<!-- Node8&#45;&gt;Node10 -->
<g id="edge9_Node000008_Node000010" class="edge">
<title>Node8&#45;&gt;Node10</title>
<g id="a_edge9_Node000008_Node000010"><a xlink:title=" ">
<path fill="none" stroke="#63b8ff" d="M219.5,-54.75C219.5,-47.8 219.5,-37.85 219.5,-29.13"/>
<polygon fill="#63b8ff" stroke="#63b8ff" points="223,-29.09 219.5,-19.09 216,-29.09 223,-29.09"/>
</a>
</g>
</g>
<!-- Node11&#45;&gt;Node6 -->
<g id="edge11_Node000011_Node000006" class="edge">
<title>Node11&#45;&gt;Node6</title>
<g id="a_edge11_Node000011_Node000006"><a xlink:title=" ">
<path fill="none" stroke="#63b8ff" d="M233.48,-109.98C246.97,-101.77 267.63,-89.18 283.54,-79.49"/>
<polygon fill="#63b8ff" stroke="#63b8ff" points="285.55,-82.36 292.27,-74.17 281.91,-76.38 285.55,-82.36"/>
</a>
</g>
</g>
<!-- Node11&#45;&gt;Node7 -->
<g id="edge14_Node000011_Node000007" class="edge">
<title>Node11&#45;&gt;Node7</title>
<g id="a_edge14_Node000011_Node000007"><a xlink:title=" ">
<path fill="none" stroke="#63b8ff" d="M244.72,-109.98C271.4,-100.98 313.61,-86.73 343.05,-76.79"/>
<polygon fill="#63b8ff" stroke="#63b8ff" points="344.52,-79.99 352.88,-73.47 342.28,-73.36 344.52,-79.99"/>
</a>
</g>
</g>
<!-- Node11&#45;&gt;Node8 -->
<g id="edge13_Node000011_Node000008" class="edge">
<title>Node11&#45;&gt;Node8</title>
<g id="a_edge13_Node000011_Node000008"><a xlink:title=" ">
<path fill="none" stroke="#63b8ff" d="M219.5,-109.75C219.5,-102.8 219.5,-92.85 219.5,-84.13"/>
<polygon fill="#63b8ff" stroke="#63b8ff" points="223,-84.09 219.5,-74.09 216,-84.09 223,-84.09"/>
</a>
</g>
</g>
<!-- Node12 -->
<g id="Node000012" class="node">
<title>Node12</title>
<g id="a_Node000012"><a xlink:title=" ">
<polygon fill="#e0e0e0" stroke="#999999" points="160.5,-74 74.5,-74 74.5,-55 160.5,-55 160.5,-74"/>
<text text-anchor="middle" x="117.5" y="-62" font-family="Helvetica,sans-Serif" font-size="10.00">QSqlDatabase</text>
</a>
</g>
</g>
<!-- Node11&#45;&gt;Node12 -->
<g id="edge12_Node000011_Node000012" class="edge">
<title>Node11&#45;&gt;Node12</title>
<g id="a_edge12_Node000011_Node000012"><a xlink:title=" ">
<path fill="none" stroke="#63b8ff" d="M203.11,-109.98C186.93,-101.57 161.93,-88.59 143.12,-78.81"/>
<polygon fill="#63b8ff" stroke="#63b8ff" points="144.67,-75.68 134.19,-74.17 141.45,-81.89 144.67,-75.68"/>
</a>
</g>
</g>
<!-- Node13&#45;&gt;Node6 -->
<g id="edge16_Node000013_Node000006" class="edge">
<title>Node13&#45;&gt;Node6</title>
<g id="a_edge16_Node000013_Node000006"><a xlink:title=" ">
<path fill="none" stroke="#63b8ff" d="M372.81,-109.98C360.67,-101.84 342.14,-89.41 327.75,-79.76"/>
<polygon fill="#63b8ff" stroke="#63b8ff" points="329.68,-76.84 319.42,-74.17 325.78,-82.65 329.68,-76.84"/>
</a>
</g>
</g>
<!-- Node13&#45;&gt;Node7 -->
<g id="edge18_Node000013_Node000007" class="edge">
<title>Node13&#45;&gt;Node7</title>
<g id="a_edge18_Node000013_Node000007"><a xlink:title=" ">
<path fill="none" stroke="#63b8ff" d="M384.01,-109.75C382.83,-102.8 381.14,-92.85 379.66,-84.13"/>
<polygon fill="#63b8ff" stroke="#63b8ff" points="383.08,-83.36 377.96,-74.09 376.18,-84.53 383.08,-83.36"/>
</a>
</g>
</g>
<!-- Node13&#45;&gt;Node8 -->
<g id="edge19_Node000013_Node000008" class="edge">
<title>Node13&#45;&gt;Node8</title>
<g id="a_edge19_Node000013_Node000008"><a xlink:title=" ">
<path fill="none" stroke="#63b8ff" d="M358.83,-109.98C330.96,-101.09 287.05,-87.07 255.98,-77.15"/>
<polygon fill="#63b8ff" stroke="#63b8ff" points="256.97,-73.79 246.38,-74.08 254.84,-80.46 256.97,-73.79"/>
</a>
</g>
</g>
<!-- Node13&#45;&gt;Node9 -->
<g id="edge17_Node000013_Node000009" class="edge">
<title>Node13&#45;&gt;Node9</title>
<g id="a_edge17_Node000013_Node000009"><a xlink:title=" ">
<path fill="none" stroke="#63b8ff" d="M393.27,-109.71C403.24,-97.31 418.27,-74.06 409.5,-55 403.75,-42.52 392.59,-32.24 382.08,-24.71"/>
<polygon fill="#63b8ff" stroke="#63b8ff" points="383.8,-21.65 373.53,-19.05 379.93,-27.49 383.8,-21.65"/>
</a>
</g>
</g>
</g>
</svg>
