<?xml version="1.0" encoding="UTF-8" standalone="no"?>
<!DOCTYPE svg PUBLIC "-//W3C//DTD SVG 1.1//EN"
 "http://www.w3.org/Graphics/SVG/1.1/DTD/svg11.dtd">
<!-- Generated by graphviz version 2.43.0 (0)
 -->
<!-- Title: ReportGenerator.cpp Pages: 1 -->
<svg width="628pt" height="192pt"
 viewBox="0.00 0.00 628.00 192.00" xmlns="http://www.w3.org/2000/svg" xmlns:xlink="http://www.w3.org/1999/xlink">
<g id="graph0" class="graph" transform="scale(1 1) rotate(0) translate(4 188)">
<title>ReportGenerator.cpp</title>
<!-- Node1 -->
<g id="Node000001" class="node">
<title>Node1</title>
<g id="a_Node000001"><a xlink:title="Implementación de los métodos de la clase ReportGenerator para generación de informes en CSV y PDF.">
<polygon fill="#999999" stroke="#666666" points="434.5,-184 317.5,-184 317.5,-165 434.5,-165 434.5,-184"/>
<text text-anchor="middle" x="376" y="-172" font-family="Helvetica,sans-Serif" font-size="10.00">ReportGenerator.cpp</text>
</a>
</g>
</g>
<!-- Node2 -->
<g id="Node000002" class="node">
<title>Node2</title>
<g id="a_Node000002"><a xlink:href="ReportGenerator_8h.html" target="_top" xlink:title="Declaración de la clase ReportGenerator para generar informes de componentes.">
<polygon fill="white" stroke="#666666" points="189,-129 83,-129 83,-110 189,-110 189,-129"/>
<text text-anchor="middle" x="136" y="-117" font-family="Helvetica,sans-Serif" font-size="10.00">ReportGenerator.h</text>
</a>
</g>
</g>
<!-- Node1&#45;&gt;Node2 -->
<g id="edge1_Node000001_Node000002" class="edge">
<title>Node1&#45;&gt;Node2</title>
<g id="a_edge1_Node000001_Node000002"><a xlink:title=" ">
<path fill="none" stroke="#63b8ff" d="M337.44,-164.98C295.93,-155.82 229.79,-141.21 184.71,-131.26"/>
<polygon fill="#63b8ff" stroke="#63b8ff" points="185.38,-127.82 174.86,-129.08 183.87,-134.66 185.38,-127.82"/>
</a>
</g>
</g>
<!-- Node7 -->
<g id="Node000007" class="node">
<title>Node7</title>
<g id="a_Node000007"><a xlink:title=" ">
<polygon fill="#e0e0e0" stroke="#999999" points="276.5,-19 229.5,-19 229.5,0 276.5,0 276.5,-19"/>
<text text-anchor="middle" x="253" y="-7" font-family="Helvetica,sans-Serif" font-size="10.00">QDate</text>
</a>
</g>
</g>
<!-- Node1&#45;&gt;Node7 -->
<g id="edge12_Node000001_Node000007" class="edge">
<title>Node1&#45;&gt;Node7</title>
<g id="a_edge12_Node000001_Node000007"><a xlink:title=" ">
<path fill="none" stroke="#63b8ff" d="M356.89,-164.94C341.7,-157.34 320.8,-144.96 307,-129 293.24,-113.08 270.94,-57.66 259.8,-28.6"/>
<polygon fill="#63b8ff" stroke="#63b8ff" points="263.05,-27.32 256.23,-19.21 256.51,-29.8 263.05,-27.32"/>
</a>
</g>
</g>
<!-- Node8 -->
<g id="Node000008" class="node">
<title>Node8</title>
<g id="a_Node000008"><a xlink:title=" ">
<polygon fill="#e0e0e0" stroke="#999999" points="357.5,-129 316.5,-129 316.5,-110 357.5,-110 357.5,-129"/>
<text text-anchor="middle" x="337" y="-117" font-family="Helvetica,sans-Serif" font-size="10.00">QFile</text>
</a>
</g>
</g>
<!-- Node1&#45;&gt;Node8 -->
<g id="edge8_Node000001_Node000008" class="edge">
<title>Node1&#45;&gt;Node8</title>
<g id="a_edge8_Node000001_Node000008"><a xlink:title=" ">
<path fill="none" stroke="#63b8ff" d="M369.56,-164.75C364.11,-157.34 356.14,-146.5 349.44,-137.41"/>
<polygon fill="#63b8ff" stroke="#63b8ff" points="352.07,-135.07 343.32,-129.09 346.43,-139.22 352.07,-135.07"/>
</a>
</g>
</g>
<!-- Node9 -->
<g id="Node000009" class="node">
<title>Node9</title>
<g id="a_Node000009"><a xlink:title=" ">
<polygon fill="#e0e0e0" stroke="#999999" points="456,-129 376,-129 376,-110 456,-110 456,-129"/>
<text text-anchor="middle" x="416" y="-117" font-family="Helvetica,sans-Serif" font-size="10.00">QTextStream</text>
</a>
</g>
</g>
<!-- Node1&#45;&gt;Node9 -->
<g id="edge9_Node000001_Node000009" class="edge">
<title>Node1&#45;&gt;Node9</title>
<g id="a_edge9_Node000001_Node000009"><a xlink:title=" ">
<path fill="none" stroke="#63b8ff" d="M382.61,-164.75C388.26,-157.26 396.54,-146.28 403.45,-137.13"/>
<polygon fill="#63b8ff" stroke="#63b8ff" points="406.29,-139.18 409.52,-129.09 400.7,-134.96 406.29,-139.18"/>
</a>
</g>
</g>
<!-- Node10 -->
<g id="Node000010" class="node">
<title>Node10</title>
<g id="a_Node000010"><a xlink:title=" ">
<polygon fill="#e0e0e0" stroke="#999999" points="544,-129 474,-129 474,-110 544,-110 544,-129"/>
<text text-anchor="middle" x="509" y="-117" font-family="Helvetica,sans-Serif" font-size="10.00">QPdfWriter</text>
</a>
</g>
</g>
<!-- Node1&#45;&gt;Node10 -->
<g id="edge10_Node000001_Node000010" class="edge">
<title>Node1&#45;&gt;Node10</title>
<g id="a_edge10_Node000001_Node000010"><a xlink:title=" ">
<path fill="none" stroke="#63b8ff" d="M397.37,-164.98C419.15,-156.3 453.16,-142.75 477.92,-132.88"/>
<polygon fill="#63b8ff" stroke="#63b8ff" points="479.25,-136.12 487.24,-129.17 476.66,-129.62 479.25,-136.12"/>
</a>
</g>
</g>
<!-- Node11 -->
<g id="Node000011" class="node">
<title>Node11</title>
<g id="a_Node000011"><a xlink:title=" ">
<polygon fill="#e0e0e0" stroke="#999999" points="620,-129 562,-129 562,-110 620,-110 620,-129"/>
<text text-anchor="middle" x="591" y="-117" font-family="Helvetica,sans-Serif" font-size="10.00">QPainter</text>
</a>
</g>
</g>
<!-- Node1&#45;&gt;Node11 -->
<g id="edge11_Node000001_Node000011" class="edge">
<title>Node1&#45;&gt;Node11</title>
<g id="a_edge11_Node000001_Node000011"><a xlink:title=" ">
<path fill="none" stroke="#63b8ff" d="M410.54,-164.98C449.17,-155.46 511.6,-140.07 551.96,-130.12"/>
<polygon fill="#63b8ff" stroke="#63b8ff" points="552.85,-133.51 561.72,-127.72 551.18,-126.71 552.85,-133.51"/>
</a>
</g>
</g>
<!-- Node3 -->
<g id="Node000003" class="node">
<title>Node3</title>
<g id="a_Node000003"><a xlink:title=" ">
<polygon fill="#e0e0e0" stroke="#999999" points="56,-74 0,-74 0,-55 56,-55 56,-74"/>
<text text-anchor="middle" x="28" y="-62" font-family="Helvetica,sans-Serif" font-size="10.00">QObject</text>
</a>
</g>
</g>
<!-- Node2&#45;&gt;Node3 -->
<g id="edge2_Node000002_Node000003" class="edge">
<title>Node2&#45;&gt;Node3</title>
<g id="a_edge2_Node000002_Node000003"><a xlink:title=" ">
<path fill="none" stroke="#63b8ff" d="M118.65,-109.98C101.43,-101.54 74.8,-88.47 54.85,-78.68"/>
<polygon fill="#63b8ff" stroke="#63b8ff" points="56.19,-75.43 45.67,-74.17 53.1,-81.72 56.19,-75.43"/>
</a>
</g>
</g>
<!-- Node4 -->
<g id="Node000004" class="node">
<title>Node4</title>
<g id="a_Node000004"><a xlink:title=" ">
<polygon fill="#e0e0e0" stroke="#999999" points="178.5,-19 125.5,-19 125.5,0 178.5,0 178.5,-19"/>
<text text-anchor="middle" x="152" y="-7" font-family="Helvetica,sans-Serif" font-size="10.00">QString</text>
</a>
</g>
</g>
<!-- Node2&#45;&gt;Node4 -->
<g id="edge3_Node000002_Node000004" class="edge">
<title>Node2&#45;&gt;Node4</title>
<g id="a_edge3_Node000002_Node000004"><a xlink:title=" ">
<path fill="none" stroke="#63b8ff" d="M125.75,-109.63C113.07,-97.51 94.15,-74.99 103,-55 108.32,-42.97 118.68,-32.8 128.51,-25.24"/>
<polygon fill="#63b8ff" stroke="#63b8ff" points="130.76,-27.93 136.87,-19.27 126.7,-22.23 130.76,-27.93"/>
</a>
</g>
</g>
<!-- Node5 -->
<g id="Node000005" class="node">
<title>Node5</title>
<g id="a_Node000005"><a xlink:title=" ">
<polygon fill="#e0e0e0" stroke="#999999" points="159.5,-74 112.5,-74 112.5,-55 159.5,-55 159.5,-74"/>
<text text-anchor="middle" x="136" y="-62" font-family="Helvetica,sans-Serif" font-size="10.00">vector</text>
</a>
</g>
</g>
<!-- Node2&#45;&gt;Node5 -->
<g id="edge4_Node000002_Node000005" class="edge">
<title>Node2&#45;&gt;Node5</title>
<g id="a_edge4_Node000002_Node000005"><a xlink:title=" ">
<path fill="none" stroke="#63b8ff" d="M136,-109.75C136,-102.8 136,-92.85 136,-84.13"/>
<polygon fill="#63b8ff" stroke="#63b8ff" points="139.5,-84.09 136,-74.09 132.5,-84.09 139.5,-84.09"/>
</a>
</g>
</g>
<!-- Node6 -->
<g id="Node000006" class="node">
<title>Node6</title>
<g id="a_Node000006"><a xlink:href="Component_8h.html" target="_top" xlink:title="Define la clase Component, que representa un componente de inventario con propiedades como id,...">
<polygon fill="white" stroke="#666666" points="260,-74 178,-74 178,-55 260,-55 260,-74"/>
<text text-anchor="middle" x="219" y="-62" font-family="Helvetica,sans-Serif" font-size="10.00">Component.h</text>
</a>
</g>
</g>
<!-- Node2&#45;&gt;Node6 -->
<g id="edge5_Node000002_Node000006" class="edge">
<title>Node2&#45;&gt;Node6</title>
<g id="a_edge5_Node000002_Node000006"><a xlink:title=" ">
<path fill="none" stroke="#63b8ff" d="M149.34,-109.98C162.09,-101.84 181.55,-89.41 196.67,-79.76"/>
<polygon fill="#63b8ff" stroke="#63b8ff" points="198.88,-82.5 205.42,-74.17 195.11,-76.6 198.88,-82.5"/>
</a>
</g>
</g>
<!-- Node6&#45;&gt;Node4 -->
<g id="edge6_Node000006_Node000004" class="edge">
<title>Node6&#45;&gt;Node4</title>
<g id="a_edge6_Node000006_Node000004"><a xlink:title=" ">
<path fill="none" stroke="#63b8ff" d="M208.24,-54.98C198.23,-47.07 183.11,-35.11 171.07,-25.58"/>
<polygon fill="#63b8ff" stroke="#63b8ff" points="172.97,-22.63 162.96,-19.17 168.63,-28.12 172.97,-22.63"/>
</a>
</g>
</g>
<!-- Node6&#45;&gt;Node7 -->
<g id="edge7_Node000006_Node000007" class="edge">
<title>Node6&#45;&gt;Node7</title>
<g id="a_edge7_Node000006_Node000007"><a xlink:title=" ">
<path fill="none" stroke="#63b8ff" d="M224.61,-54.75C229.32,-47.42 236.17,-36.73 241.97,-27.7"/>
<polygon fill="#63b8ff" stroke="#63b8ff" points="245.04,-29.4 247.49,-19.09 239.14,-25.62 245.04,-29.4"/>
</a>
</g>
</g>
</g>
</svg>
