<?xml version="1.0" encoding="UTF-8" standalone="no"?>
<!DOCTYPE svg PUBLIC "-//W3C//DTD SVG 1.1//EN"
 "http://www.w3.org/Graphics/SVG/1.1/DTD/svg11.dtd">
<!-- Generated by graphviz version 2.43.0 (0)
 -->
<!-- Title: ReportGenerator.h Pages: 1 -->
<svg width="286pt" height="137pt"
 viewBox="0.00 0.00 286.00 137.00" xmlns="http://www.w3.org/2000/svg" xmlns:xlink="http://www.w3.org/1999/xlink">
<g id="graph0" class="graph" transform="scale(1 1) rotate(0) translate(4 133)">
<title>ReportGenerator.h</title>
<!-- Node1 -->
<g id="Node000001" class="node">
<title>Node1</title>
<g id="a_Node000001"><a xlink:title="Declaración de la clase ReportGenerator para generar informes de componentes.">
<polygon fill="#999999" stroke="#666666" points="211.5,-129 105.5,-129 105.5,-110 211.5,-110 211.5,-129"/>
<text text-anchor="middle" x="158.5" y="-117" font-family="Helvetica,sans-Serif" font-size="10.00">ReportGenerator.h</text>
</a>
</g>
</g>
<!-- Node2 -->
<g id="Node000002" class="node">
<title>Node2</title>
<g id="a_Node000002"><a xlink:href="MainWindow_8h.html" target="_top" xlink:title="Declaración de la clase MainWindow para la interfaz principal de la aplicación.">
<polygon fill="white" stroke="#666666" points="142.5,-74 54.5,-74 54.5,-55 142.5,-55 142.5,-74"/>
<text text-anchor="middle" x="98.5" y="-62" font-family="Helvetica,sans-Serif" font-size="10.00">MainWindow.h</text>
</a>
</g>
</g>
<!-- Node1&#45;&gt;Node2 -->
<g id="edge1_Node000001_Node000002" class="edge">
<title>Node1&#45;&gt;Node2</title>
<g id="a_edge1_Node000001_Node000002"><a xlink:title=" ">
<path fill="none" stroke="#63b8ff" d="M141.32,-103.32C130.62,-93.87 117.24,-82.06 108.32,-74.17"/>
<polygon fill="#63b8ff" stroke="#63b8ff" points="139.05,-105.99 148.86,-109.98 143.68,-100.74 139.05,-105.99"/>
</a>
</g>
</g>
<!-- Node5 -->
<g id="Node000005" class="node">
<title>Node5</title>
<g id="a_Node000005"><a xlink:href="ReportGenerator_8cpp.html" target="_top" xlink:title="Implementación de los métodos de la clase ReportGenerator para generación de informes en CSV y PDF.">
<polygon fill="white" stroke="#666666" points="278,-74 161,-74 161,-55 278,-55 278,-74"/>
<text text-anchor="middle" x="219.5" y="-62" font-family="Helvetica,sans-Serif" font-size="10.00">ReportGenerator.cpp</text>
</a>
</g>
</g>
<!-- Node1&#45;&gt;Node5 -->
<g id="edge4_Node000001_Node000005" class="edge">
<title>Node1&#45;&gt;Node5</title>
<g id="a_edge4_Node000001_Node000005"><a xlink:title=" ">
<path fill="none" stroke="#63b8ff" d="M175.97,-103.32C186.84,-93.87 200.44,-82.06 209.52,-74.17"/>
<polygon fill="#63b8ff" stroke="#63b8ff" points="173.55,-100.78 168.3,-109.98 178.15,-106.07 173.55,-100.78"/>
</a>
</g>
</g>
<!-- Node3 -->
<g id="Node000003" class="node">
<title>Node3</title>
<g id="a_Node000003"><a xlink:href="MainWindow_8cpp.html" target="_top" xlink:title="Implementación de la clase MainWindow para la interfaz principal de la aplicación.">
<polygon fill="white" stroke="#666666" points="99,-19 0,-19 0,0 99,0 99,-19"/>
<text text-anchor="middle" x="49.5" y="-7" font-family="Helvetica,sans-Serif" font-size="10.00">MainWindow.cpp</text>
</a>
</g>
</g>
<!-- Node2&#45;&gt;Node3 -->
<g id="edge2_Node000002_Node000003" class="edge">
<title>Node2&#45;&gt;Node3</title>
<g id="a_edge2_Node000002_Node000003"><a xlink:title=" ">
<path fill="none" stroke="#63b8ff" d="M83.47,-47.24C74.88,-37.95 64.46,-26.68 57.44,-19.09"/>
<polygon fill="#63b8ff" stroke="#63b8ff" points="81.05,-49.78 90.41,-54.75 86.19,-45.03 81.05,-49.78"/>
</a>
</g>
</g>
<!-- Node4 -->
<g id="Node000004" class="node">
<title>Node4</title>
<g id="a_Node000004"><a xlink:href="main_8cpp.html" target="_top" xlink:title="Punto de entrada de la aplicación de inventario.">
<polygon fill="white" stroke="#666666" points="179.5,-19 117.5,-19 117.5,0 179.5,0 179.5,-19"/>
<text text-anchor="middle" x="148.5" y="-7" font-family="Helvetica,sans-Serif" font-size="10.00">main.cpp</text>
</a>
</g>
</g>
<!-- Node2&#45;&gt;Node4 -->
<g id="edge3_Node000002_Node000004" class="edge">
<title>Node2&#45;&gt;Node4</title>
<g id="a_edge3_Node000002_Node000004"><a xlink:title=" ">
<path fill="none" stroke="#63b8ff" d="M113.84,-47.24C122.6,-37.95 133.24,-26.68 140.4,-19.09"/>
<polygon fill="#63b8ff" stroke="#63b8ff" points="111.07,-45.07 106.76,-54.75 116.16,-49.88 111.07,-45.07"/>
</a>
</g>
</g>
</g>
</svg>
